<svg width="31" height="40" viewBox="0 0 31 40" fill="none" xmlns="http://www.w3.org/2000/svg">
<path d="M26.0657 4.43035C20.0622 -1.47678 10.4502 -1.47678 4.47867 4.43035C-1.49289 10.3375 -1.49289 19.9921 4.47867 25.8993L15.2722 36.3797L26.0338 25.8675C32.0054 19.9921 32.0054 10.3375 26.0657 4.43035ZM24.2136 24.089L15.2403 32.8545L6.29888 24.089C3.90387 21.7071 2.5946 18.563 2.5946 15.1966C2.5946 11.8301 3.90387 8.65427 6.29888 6.27236C8.6939 3.89045 11.8872 2.52482 15.2722 2.52482C18.6572 2.52482 21.8505 3.82693 24.2455 6.20884C26.6405 8.59075 27.9179 11.7666 27.9179 15.1648C27.9817 18.563 26.6086 21.6754 24.2136 24.089Z" fill="#38BC80"/>
<path d="M15.2722 8.6543C11.6638 8.6543 8.75781 11.5761 8.75781 15.1331C8.75781 18.6901 11.6638 21.6436 15.2722 21.6436C18.8807 21.6436 21.7867 18.7536 21.7867 15.1966C21.7867 11.6396 18.8807 8.6543 15.2722 8.6543ZM15.2722 19.1347C13.1008 19.1347 11.3125 17.3562 11.3125 15.1966C11.3125 13.037 13.1008 11.195 15.2722 11.195C17.4437 11.195 19.232 12.9735 19.232 15.1331C19.232 17.2927 17.4437 19.1347 15.2722 19.1347Z" fill="#38BC80"/>
<path d="M27.0878 37.4595H3.45703V40.0002H27.0878V37.4595Z" fill="#38BC80"/>
</svg>
