<svg width="41" height="40" viewBox="0 0 41 40" fill="none" xmlns="http://www.w3.org/2000/svg">
<path d="M20.495 12.4189C16.3807 12.4189 12.9521 15.7713 12.9521 19.9618C12.9521 24.1523 16.3045 27.5047 20.495 27.5047C24.6855 27.5047 28.0379 24.1523 28.0379 19.9618C28.0379 15.7713 24.6855 12.4189 20.495 12.4189ZM20.495 24.9142C17.7521 24.9142 15.5426 22.7047 15.5426 19.9618C15.5426 17.2189 17.7521 15.0094 20.495 15.0094C23.2379 15.0094 25.4474 17.2189 25.4474 19.9618C25.4474 22.7047 23.2379 24.9142 20.495 24.9142Z" fill="#38BC80"/>
<path d="M34.5905 4.41905L29.2571 7.46667C28.4952 6.93333 27.7333 6.47619 26.8952 6.09524V0H14.0952V6.17143C13.3333 6.55238 12.5714 6.93333 11.8857 7.46667L6.62857 4.26667L0.0761905 15.3143L5.33333 18.4381C5.25714 18.9714 5.25714 19.5048 5.25714 19.9619C5.25714 20.419 5.25714 20.8762 5.33333 21.3333L0 24.381L6.4 35.5048L11.7333 32.4571C12.4952 32.9905 13.2571 33.4476 14.0952 33.8286V40H26.8952V33.8286C27.6571 33.4476 28.419 33.0667 29.1048 32.5333L34.3619 35.6571L40.9143 24.6095L35.6571 21.4857C35.7333 20.9524 35.7333 20.419 35.7333 19.9619C35.7333 19.5048 35.7333 19.0476 35.6571 18.5905L40.9905 15.5429L34.5905 4.41905ZM32.9143 17.219L33.0667 18.0571C33.1429 18.7429 33.219 19.3524 33.219 19.8857C33.219 20.4952 33.1429 21.181 33.0667 21.8667L32.8381 22.8571L37.4095 25.5238L33.5238 32.1524L28.9524 29.4857L28.2667 30.019C27.3524 30.781 26.2857 31.3905 25.1429 31.7714L24.3048 32.0762V37.3333H16.6857V32.0762L15.8476 31.7714C14.7048 31.3143 13.5619 30.7048 12.6476 29.9429L11.9619 29.4095L7.39048 32.0762L3.58095 25.4476L8.15238 22.781L8 21.9429C7.92381 21.2571 7.84762 20.6476 7.84762 20.1143C7.84762 19.5048 7.92381 18.8952 8 18.1333L8.15238 17.2952L3.58095 14.6286L7.46667 8.07619L12.0381 10.7429L12.7238 10.2095C13.6381 9.44762 14.7048 8.8381 15.8476 8.45714L16.6857 8.15238V2.59048H24.3048V7.84762L25.1429 8.15238C26.2857 8.60952 27.4286 9.21905 28.3429 9.98095L29.0286 10.5143L33.6 7.84762L37.4095 14.4762L32.9143 17.219Z" fill="#38BC80"/>
</svg>
