<svg width="68" height="85" viewBox="0 0 68 85" fill="none" xmlns="http://www.w3.org/2000/svg">
<path d="M65.8747 0H2.12499C0.951266 0 1.38974e-06 0.951265 1.38974e-06 2.12499V78.6249C-0.00132673 79.798 0.94944 80.7488 2.1225 80.7499H31.8748C33.0486 80.7499 33.9998 79.798 33.9998 78.6249C33.9998 77.4512 33.0486 76.4998 31.8748 76.4998H4.24965V4.24998H63.749V76.4996H57.3744C56.2007 76.4996 55.2492 77.4509 55.2492 78.6246C55.2492 79.7978 56.2005 80.7498 57.3742 80.7498H65.8742C67.0472 80.7504 67.9987 79.8005 67.9992 78.6273V2.12516C67.9992 0.951431 67.0479 0 65.8748 0H65.8747Z" fill="#38BC80"/>
<path d="M55.2498 61.6251C55.2797 55.7573 50.5463 50.9767 44.6786 50.9468C38.8103 50.9176 34.0298 55.6504 34.0006 61.5187C33.9921 63.1771 34.372 64.8144 35.1099 66.2997C35.8479 67.7849 36.9232 69.0767 38.25 70.0717V82.8748C38.25 84.0485 39.2013 85 40.3752 85C40.9388 85 41.479 84.7755 41.8778 84.3774L44.6253 81.6299L47.3732 84.3774C47.6703 84.6746 48.0489 84.877 48.4611 84.959C48.8732 85.041 49.3005 84.9989 49.6887 84.8381C50.077 84.6773 50.4088 84.4049 50.6422 84.0555C50.8757 83.706 51.0002 83.2952 51.0001 82.875V70.0709C52.3152 69.0893 53.3838 67.8152 54.1214 66.3493C54.8589 64.8833 55.2453 63.2659 55.2498 61.6249V61.6251ZM46.7498 77.7451L46.1273 77.1226C45.298 76.2933 43.953 76.2933 43.1229 77.1226L42.5003 77.7451V72.0345C43.9024 72.3212 45.3479 72.3212 46.75 72.0345L46.7498 77.7451ZM44.6255 68.0004C41.1042 68.0004 38.25 65.1456 38.25 61.6249C38.25 58.1042 41.1042 55.2503 44.6255 55.2503C48.1462 55.2503 51.0001 58.1042 51.0001 61.6249C50.9963 65.1444 48.1442 67.9966 44.6255 68.0004ZM44.6253 17C45.7986 17 46.75 16.0487 46.75 14.875C46.75 13.7018 45.7987 12.7505 44.6255 12.7505H23.3756C22.2019 12.7505 21.2505 13.7018 21.2505 14.875C21.2505 16.0487 22.2017 17 23.3754 17H44.6253ZM12.75 27.6256C12.7493 28.7981 13.7001 29.7494 14.8725 29.7501H53.1253C54.2984 29.7501 55.2498 28.7988 55.2498 27.6256C55.2498 26.4519 54.2985 25.5006 53.1253 25.5006H14.8752C13.7019 25.5006 12.75 26.4519 12.75 27.6256ZM55.2498 36.1249C55.2498 34.9516 54.2985 34.0004 53.1253 34.0004H14.8752C13.7019 34.0004 12.75 34.9516 12.75 36.1249C12.75 37.2986 13.7019 38.2499 14.875 38.2499H53.1253C54.2979 38.2512 55.2491 37.3006 55.2498 36.1274V36.1249ZM14.8752 51.0001C13.7019 51.0001 12.75 51.9521 12.75 53.1251C12.75 54.2988 13.7019 55.2501 14.875 55.2501H23.3756C24.5487 55.2501 25.5001 54.2988 25.5001 53.1251C25.5001 51.9521 24.5488 51.0001 23.3756 51.0001H14.8752Z" fill="#38BC80"/>
</svg>
