<svg width="26" height="30" viewBox="0 0 26 30" fill="none" xmlns="http://www.w3.org/2000/svg">
<path d="M25.2353 5.04493C21.1059 3.8896 17.2059 2.27214 13.5353 0.115533C13.2294 -0.0385109 12.8471 -0.0385109 12.5412 0.115533C8.79412 2.27214 4.81765 3.8896 0.764706 5.04493C0.305882 5.12195 0 5.50706 0 5.96919V12.285C0 18.9089 3.05882 23.2991 5.65882 25.7638C8.48824 28.5366 11.7 30 13 30C14.2235 30 17.5118 28.5366 20.3412 25.7638C22.8647 23.2991 26 18.9089 26 12.285V5.96919C26 5.50706 25.6941 5.12195 25.2353 5.04493ZM23.9353 6.73941V12.285C23.9353 18.2157 21.1824 22.1438 18.8882 24.3774C16.2882 26.9191 13.4588 27.9974 13 27.9974C12.5412 27.9974 9.71177 26.9191 7.11176 24.3774C4.81765 22.1438 2.06471 18.2157 2.06471 12.285V6.73941C5.88824 5.6611 9.55882 4.12067 13.0765 2.1181C16.4412 4.12067 20.1118 5.6611 23.9353 6.73941Z" fill="white"/>
</svg>
