<svg width="25" height="25" viewBox="0 0 25 25" fill="none" xmlns="http://www.w3.org/2000/svg">
<path d="M8.75 0H2.5C1.125 0 0 1.125 0 2.5V8.75C0 10.125 1.125 11.25 2.5 11.25H8.75C10.125 11.25 11.25 10.125 11.25 8.75V2.5C11.25 1.125 10.125 0 8.75 0ZM8.75 6.25H2.5V5H8.75V6.25ZM22.5 13.75H16.25C14.875 13.75 13.75 14.875 13.75 16.25V22.5C13.75 23.875 14.875 25 16.25 25H22.5C23.875 25 25 23.875 25 22.5V16.25C25 14.875 23.875 13.75 22.5 13.75ZM22.5 21.25H16.25V20H22.5V21.25ZM22.5 18.75H16.25V17.5H22.5V18.75ZM22.5 0H16.25C14.875 0 13.75 1.125 13.75 2.5V8.75C13.75 10.125 14.875 11.25 16.25 11.25H22.5C23.875 11.25 25 10.125 25 8.75V2.5C25 1.125 23.875 0 22.5 0ZM22.5 6.25H20V8.75H18.75V6.25H16.25V5H18.75V2.5H20V5H22.5V6.25ZM8.75 13.75H2.5C1.125 13.75 0 14.875 0 16.25V22.5C0 23.875 1.125 25 2.5 25H8.75C10.125 25 11.25 23.875 11.25 22.5V16.25C11.25 14.875 10.125 13.75 8.75 13.75ZM8.25 21.125L7.375 22L5.625 20.25L3.875 22L3 21.125L4.75 19.375L3 17.625L3.875 16.75L5.625 18.5L7.375 16.75L8.25 17.625L6.5 19.375L8.25 21.125Z" fill="white"/>
</svg>
