<svg width="25" height="26" viewBox="0 0 25 26" fill="none" xmlns="http://www.w3.org/2000/svg">
<path d="M21.0137 16.2419C20.1387 15.298 19.0013 15.298 18.09 16.2419C17.4046 16.9517 16.7266 17.6539 16.0412 18.3637C15.8516 18.56 15.6985 18.5977 15.4725 18.4845C15.0569 18.2127 14.5611 18.0163 14.1455 17.737C12.1697 16.4382 10.5 14.7846 9.01997 12.9044C8.29816 11.9606 7.65656 10.9789 7.19723 9.83876C7.12432 9.60468 7.12432 9.48387 7.31388 9.28755C8.03569 8.61552 8.6773 7.91329 9.36265 7.20351C10.3105 6.2219 10.3105 5.08172 9.36265 4.10011C8.79395 3.51115 8.26171 2.95993 7.72947 2.40872C7.16077 1.81976 6.62853 1.23079 6.05983 0.679577C5.18491 -0.226526 4.04752 -0.226526 3.13614 0.679577C2.45079 1.38936 1.77273 2.09159 1.08738 2.80137C0.438477 3.47339 0.103092 4.25868 0.0228907 5.15723C-0.0937651 6.61455 0.248911 8.02656 0.744699 9.40081C1.77273 12.2701 3.32571 14.7468 5.18491 17.0649C7.72947 20.2136 10.7625 22.6903 14.2987 24.4572C15.8954 25.2425 17.5286 25.8692 19.2711 25.99C20.5252 26.0655 21.5896 25.7182 22.4573 24.729C23.026 24.0193 23.7113 23.4303 24.3165 22.7658C25.2278 21.7842 25.2278 20.6063 24.3165 19.6624C23.2155 18.5222 22.1146 17.3821 21.0137 16.2419Z" fill="white"/>
</svg>
