<svg width="100" height="69" viewBox="0 0 100 69" fill="none" xmlns="http://www.w3.org/2000/svg">
<path d="M63.8437 0L75.687 21.7877L100 26.3557L83.0065 44.3892L86.1895 69L63.8437 58.3577L52.0004 69L52.0003 44.3892L52.0001 26.3557L52.0003 21.7877L63.8437 0Z" fill="#FEDA55"/>
<path fill-rule="evenodd" clip-rule="evenodd" d="M33.7615 8.83537H28.2752C18.1468 8.83537 13.0826 13.8841 13.0826 21.0366C13.0826 29.4512 16.8807 33.2378 24.055 38.2866L29.9633 42.4939L13.0826 68.5793H0L15.6147 45.439C6.7523 39.128 1.68807 32.8171 1.68807 22.2988C1.68807 8.83536 10.9725 0 28.6972 0H46V69H33.7615V38.9177V8.83537Z" fill="#FF4433"/>
</svg>
