<svg width="39" height="40" viewBox="0 0 39 40" fill="none" xmlns="http://www.w3.org/2000/svg">
<path d="M37.6167 23.1667C37.7846 23.1667 37.9457 23.0999 38.0645 22.9812C38.1833 22.8624 38.25 22.7013 38.25 22.5333V17.4667C38.25 17.2987 38.1833 17.1376 38.0645 17.0188C37.9457 16.9001 37.7846 16.8333 37.6167 16.8333H34.1124C33.7275 15.017 33.011 13.2872 31.999 11.7306L34.4741 9.2498C34.5926 9.13106 34.6592 8.97013 34.6592 8.80235C34.6592 8.63457 34.5926 8.47364 34.4741 8.3549L30.8957 4.77657C30.777 4.65803 30.6161 4.59145 30.4483 4.59145C30.2805 4.59145 30.1196 4.65803 30.0008 4.77657L27.5194 7.251C25.9628 6.23897 24.233 5.52253 22.4167 5.13757V1.63333C22.4167 1.46536 22.3499 1.30427 22.2312 1.1855C22.1124 1.06673 21.9513 1 21.7833 1H16.7167C16.5487 1 16.3876 1.06673 16.2688 1.1855C16.1501 1.30427 16.0833 1.46536 16.0833 1.63333V5.13757C14.267 5.52253 12.5372 6.23897 10.9806 7.251L8.4998 4.77593C8.38106 4.6574 8.22013 4.59082 8.05235 4.59082C7.88457 4.59082 7.72364 4.6574 7.6049 4.77593L4.02657 8.35427C3.90803 8.47301 3.84145 8.63393 3.84145 8.80172C3.84145 8.9695 3.90803 9.13042 4.02657 9.24917L6.50163 11.7299C5.48931 13.2867 4.77265 15.0167 4.38757 16.8333H0.883333C0.715363 16.8333 0.554272 16.9001 0.435499 17.0188C0.316726 17.1376 0.25 17.2987 0.25 17.4667V22.5333C0.25 22.7013 0.316726 22.8624 0.435499 22.9812C0.554272 23.0999 0.715363 23.1667 0.883333 23.1667H4.38757C4.77253 24.983 5.48897 26.7128 6.501 28.2694L4.02593 30.7502C3.9074 30.8689 3.84082 31.0299 3.84082 31.1976C3.84082 31.3654 3.9074 31.5264 4.02593 31.6451L7.60427 35.2234C7.72301 35.342 7.88393 35.4086 8.05172 35.4086C8.2195 35.4086 8.38042 35.342 8.49917 35.2234L10.9799 32.7484C12.5367 33.7607 14.2667 34.4773 16.0833 34.8624V38.3667C16.0833 38.5346 16.1501 38.6957 16.2688 38.8145C16.3876 38.9333 16.5487 39 16.7167 39H21.7833C21.9513 39 22.1124 38.9333 22.2312 38.8145C22.3499 38.6957 22.4167 38.5346 22.4167 38.3667V34.8624C24.2325 34.4759 25.9616 33.7584 27.5175 32.7458L32.6849 37.9132C33.2797 38.5028 34.0837 38.8327 34.9212 38.8309C35.7586 38.8291 36.5612 38.4956 37.1534 37.9034C37.7456 37.3112 38.0791 36.5086 38.0809 35.6712C38.0827 34.8337 37.7528 34.0297 37.1632 33.4349L31.9958 28.2675C33.0084 26.7116 33.7259 24.9825 34.1124 23.1667H37.6167ZM36.2677 37.0177C36.0912 37.1941 35.8818 37.3341 35.6512 37.4296C35.4207 37.5251 35.1736 37.5743 34.924 37.5743C34.6745 37.5743 34.4274 37.5251 34.1969 37.4296C33.9663 37.3341 33.7569 37.1941 33.5804 37.0177L21.4534 24.8912C21.1588 24.5971 20.809 24.3641 20.4239 24.2059C20.0389 24.0476 19.6264 23.9671 19.2101 23.9691C19.078 23.9691 18.9461 23.9769 18.8149 23.9925C17.9932 24.0912 17.1599 23.987 16.3878 23.6889C15.6158 23.3908 14.9286 22.908 14.3865 22.2827C13.8443 21.6574 13.4638 20.9087 13.2781 20.1023C13.0924 19.2958 13.1072 18.4561 13.3214 17.6567L16.115 20.4509C16.2337 20.5697 16.3948 20.6365 16.5628 20.6365H19.25C19.418 20.6365 19.5791 20.5698 19.6978 20.451C19.8166 20.3322 19.8833 20.1711 19.8833 20.0032V17.3128C19.8833 17.1448 19.8165 16.9837 19.6978 16.865L16.9067 14.0714C17.7059 13.8577 18.5453 13.8433 19.3515 14.0292C20.1576 14.2151 20.9059 14.5958 21.5308 15.1378C22.1558 15.6799 22.6383 16.3669 22.9363 17.1387C23.2343 17.9105 23.3385 18.7435 23.24 19.5649C23.1789 20.0441 23.2281 20.5309 23.3838 20.9882C23.5396 21.4455 23.7978 21.8611 24.1387 22.2034L36.2677 34.3304C36.4441 34.5069 36.5841 34.7163 36.6796 34.9469C36.7751 35.1774 36.8243 35.4245 36.8243 35.674C36.8243 35.9236 36.7751 36.1707 36.6796 36.4012C36.5841 36.6318 36.4441 36.8412 36.2677 37.0177ZM25.0368 21.311C24.8319 21.104 24.6771 20.8528 24.5842 20.5767C24.4913 20.3006 24.4629 20.0069 24.501 19.7182C24.6367 18.5924 24.4675 17.4509 24.011 16.4129C23.5546 15.375 22.8276 14.4787 21.9062 13.8178C20.9848 13.157 19.9028 12.7558 18.7733 12.6562C17.6438 12.5566 16.5083 12.7623 15.4855 13.2518C15.3942 13.2956 15.3148 13.3607 15.2538 13.4415C15.1929 13.5224 15.1522 13.6167 15.1352 13.7165C15.1182 13.8163 15.1254 13.9187 15.1561 14.0152C15.1869 14.1116 15.2403 14.1993 15.3119 14.2709L18.6167 17.575V19.3667H16.825L13.5209 16.0619C13.4493 15.9903 13.3616 15.9369 13.2652 15.9061C13.1687 15.8754 13.0663 15.8682 12.9665 15.8852C12.8667 15.9022 12.7724 15.9429 12.6915 16.0038C12.6107 16.0648 12.5456 16.1442 12.5018 16.2355C12.0125 17.258 11.8068 18.3931 11.9062 19.5223C12.0057 20.6515 12.4066 21.7333 13.0671 22.6545C13.7275 23.5758 14.6234 24.3027 15.6609 24.7594C16.6984 25.216 17.8395 25.3856 18.965 25.2503C19.2538 25.2124 19.5475 25.241 19.8236 25.3339C20.0997 25.4269 20.3508 25.5818 20.5578 25.7868L23.8157 29.044C21.6635 30.1313 19.1942 30.416 16.851 29.847C14.5078 29.278 12.4441 27.8926 11.0302 25.9394C9.61625 23.9862 8.94466 21.593 9.13592 19.1894C9.32718 16.7857 10.3688 14.5288 12.0738 12.8238C13.7788 11.1188 16.0357 10.0772 18.4394 9.88592C20.843 9.69466 23.2362 10.3662 25.1894 11.7802C27.1426 13.1941 28.528 15.2578 29.097 17.601C29.666 19.9442 29.3813 22.4135 28.294 24.5657L25.0368 21.311ZM32.9648 22.4295C32.6594 24.1775 32.0199 25.8502 31.0813 27.3562L29.2294 25.5043C30.5581 23.0966 30.9728 20.2902 30.3972 17.6011C29.8217 14.9121 28.2946 12.5212 26.0968 10.8683C23.899 9.21544 21.1784 8.41163 18.4352 8.60475C15.692 8.79788 13.1108 9.97494 11.1663 11.9195C9.22177 13.864 8.04471 16.4452 7.85159 19.1884C7.65847 21.9315 8.46227 24.6522 10.1152 26.85C11.7681 29.0477 14.1589 30.5748 16.8479 31.1504C19.537 31.726 22.3435 31.3113 24.7511 29.9826L26.603 31.8345C25.0971 32.7731 23.4243 33.4126 21.6763 33.718C21.5296 33.7431 21.3965 33.8191 21.3003 33.9326C21.204 34.0461 21.1508 34.1899 21.15 34.3387V37.7333H17.35V34.3387C17.3499 34.1893 17.297 34.0448 17.2007 33.9307C17.1044 33.8165 16.9709 33.7401 16.8237 33.7148C14.8258 33.3651 12.9296 32.5793 11.27 31.4133C11.148 31.3276 10.9997 31.2876 10.8512 31.3005C10.7027 31.3134 10.5635 31.3782 10.4581 31.4836L8.05647 33.8808L5.3724 31.1967L7.76957 28.7951C7.87497 28.6897 7.9398 28.5505 7.95266 28.4019C7.96552 28.2534 7.92558 28.1051 7.83987 27.9832C6.67345 26.3226 5.88761 24.4253 5.53833 22.4263C5.513 22.2786 5.4361 22.1446 5.32129 22.0482C5.20649 21.9519 5.06122 21.8993 4.91133 21.9H1.51667V18.1H4.91133C5.06068 18.0999 5.20519 18.047 5.31933 17.9507C5.43348 17.8544 5.50993 17.7209 5.53517 17.5737C5.88489 15.5758 6.67071 13.6796 7.8367 12.02C7.92241 11.898 7.96235 11.7497 7.94949 11.6012C7.93663 11.4527 7.8718 11.3135 7.7664 11.2081L5.36923 8.80647L8.0533 6.1224L10.4549 8.51957C10.5603 8.62497 10.6995 8.6898 10.8481 8.70266C10.9966 8.71552 11.1449 8.67558 11.2668 8.58987C12.9274 7.42345 14.8247 6.63761 16.8237 6.28833C16.9714 6.263 17.1054 6.1861 17.2018 6.07129C17.2981 5.95649 17.3507 5.81122 17.35 5.66133V2.26667H21.15V5.66133C21.1501 5.81068 21.203 5.95519 21.2993 6.06933C21.3956 6.18348 21.5291 6.25993 21.6763 6.28517C23.6753 6.63444 25.5726 7.42028 27.2332 8.5867C27.3551 8.67241 27.5034 8.71235 27.6519 8.69949C27.8005 8.68663 27.9397 8.6218 28.0451 8.5164L30.4467 6.11923L33.1308 8.8033L30.7336 11.2049C30.6282 11.3103 30.5634 11.4495 30.5505 11.5981C30.5376 11.7466 30.5776 11.8949 30.6633 12.0168C31.8297 13.6774 32.6156 15.5747 32.9648 17.5737C32.9901 17.7209 33.0665 17.8544 33.1807 17.9507C33.2948 18.047 33.4393 18.0999 33.5887 18.1H36.9833V21.9H33.5887C33.4393 21.9001 33.2948 21.953 33.1807 22.0493C33.0665 22.1456 32.9901 22.2791 32.9648 22.4263V22.4295Z" fill="#38BC80" stroke="#38BC80" stroke-width="0.2"/>
<path d="M23.2803 23.135C23.2219 23.0745 23.152 23.0263 23.0747 22.9931C22.9974 22.9599 22.9143 22.9424 22.8302 22.9417C22.7461 22.9409 22.6628 22.957 22.5849 22.9888C22.5071 23.0207 22.4364 23.0677 22.3769 23.1272C22.3174 23.1866 22.2704 23.2573 22.2386 23.3352C22.2067 23.413 22.1907 23.4964 22.1914 23.5805C22.1922 23.6646 22.2096 23.7477 22.2428 23.825C22.276 23.9022 22.3243 23.9721 22.3848 24.0305L22.8325 24.4783C22.952 24.5937 23.112 24.6575 23.278 24.6561C23.4441 24.6546 23.6029 24.588 23.7203 24.4706C23.8378 24.3532 23.9044 24.1943 23.9058 24.0283C23.9073 23.8622 23.8434 23.7022 23.7281 23.5828L23.2803 23.135ZM32.2369 33.8827C32.3563 33.998 32.5163 34.0619 32.6824 34.0604C32.8484 34.059 33.0073 33.9924 33.1247 33.875C33.2421 33.7575 33.3087 33.5987 33.3102 33.4326C33.3116 33.2666 33.2478 33.1066 33.1324 32.9871L25.5198 25.3738C25.4009 25.255 25.2397 25.1882 25.0717 25.1882C24.9036 25.1882 24.7424 25.255 24.6236 25.3738C24.5048 25.4927 24.438 25.6539 24.438 25.8219C24.438 25.99 24.5048 26.1512 24.6236 26.27L32.2369 33.8827ZM34.4764 36.1221C34.5958 36.2375 34.7558 36.3013 34.9218 36.2999C35.0879 36.2985 35.2467 36.2318 35.3642 36.1144C35.4816 35.997 35.5482 35.8381 35.5497 35.6721C35.5511 35.506 35.4873 35.346 35.3719 35.2266L34.9241 34.7782C34.8053 34.6594 34.6441 34.5926 34.476 34.5926C34.308 34.5926 34.1468 34.6594 34.028 34.7782C33.9091 34.897 33.8424 35.0582 33.8424 35.2263C33.8424 35.3943 33.9091 35.5555 34.028 35.6744L34.4764 36.1221Z" fill="#38BC80" stroke="#38BC80" stroke-width="0.2"/>
</svg>
