<svg width="32" height="38" viewBox="0 0 32 38" fill="none" xmlns="http://www.w3.org/2000/svg">
<path d="M31.4193 6.47942C26.2566 5.06483 21.0635 2.86218 16.4015 0.109656C16.1538 -0.036552 15.8465 -0.036552 15.599 0.109656C10.8025 2.94126 5.89002 5.02474 0.580728 6.47942C0.237744 6.5733 0 6.88506 0 7.24073V15.3057C0 23.6108 3.83138 29.1082 7.04562 32.2575C10.5059 35.6481 14.5367 37.5232 16.0002 37.5232C17.4635 37.5232 21.4943 35.6481 24.9547 32.2575C28.1688 29.1083 32 23.6109 32 15.3057V7.24065C32 6.88506 31.7623 6.5733 31.4193 6.47942ZM30.4214 15.3056C30.4214 23.0626 26.8478 28.1923 23.8498 31.1298C20.447 34.464 16.8088 35.9444 16.0002 35.9444C15.1916 35.9444 11.5532 34.464 8.15035 31.1298C5.15239 28.1922 1.57868 23.0626 1.57868 15.3056V7.83985C6.65588 6.39829 11.3842 4.38648 16.0004 1.70395C20.5012 4.31532 25.4655 6.42716 30.4214 7.83955V15.3056Z" fill="#38BC80"/>
<path d="M9.00345 7.75159C8.84369 7.34595 8.38542 7.14668 7.9797 7.30652C6.56965 7.86211 5.12237 8.37351 3.6781 8.82657C3.34897 8.9299 3.125 9.23478 3.125 9.57967V12.6278C3.125 13.0637 3.47846 13.4171 3.91431 13.4171C4.35015 13.4171 4.70361 13.0637 4.70361 12.6278V10.1565C5.99926 9.73731 7.29351 9.27362 8.55838 8.7752C8.96403 8.6155 9.16329 8.15724 9.00345 7.75159Z" fill="#38BC80"/>
<path d="M10.504 7.90128C10.6099 7.90128 10.7174 7.87995 10.8205 7.83495L10.835 7.82865C11.2344 7.65364 11.4142 7.18878 11.2392 6.78958C11.0641 6.39024 10.5966 6.20959 10.1977 6.38445L10.1849 6.38995C9.78534 6.56444 9.60491 7.02894 9.77941 7.42835C9.90891 7.72487 10.1995 7.90128 10.504 7.90128Z" fill="#38BC80"/>
<path d="M25.4044 25.4514C25.0396 25.213 24.5505 25.3155 24.3118 25.6804C23.6614 26.6759 22.8983 27.6292 22.0435 28.5136C21.3405 29.2408 20.5788 29.9185 19.7794 30.5279C19.4329 30.7922 19.3662 31.2875 19.6304 31.6342C19.7858 31.8378 20.0208 31.945 20.2586 31.945C20.4255 31.945 20.5937 31.8923 20.7366 31.7832C21.5989 31.1258 22.4204 30.3949 23.1784 29.6109C24.1026 28.6549 24.9285 27.623 25.6334 26.5439C25.872 26.1789 25.7693 25.6898 25.4044 25.4514Z" fill="#38BC80"/>
<path d="M17.9471 31.766L17.9018 31.7926C17.5246 32.0111 17.3957 32.4939 17.6141 32.8711C17.7605 33.124 18.0254 33.2651 18.298 33.2651C18.4321 33.2651 18.5682 33.2309 18.6926 33.1587L18.7449 33.128C19.1211 32.9077 19.2474 32.4242 19.0271 32.048C18.8067 31.672 18.3231 31.5459 17.9471 31.766Z" fill="#38BC80"/>
<path d="M10.6205 17.1506C10.1358 16.6658 9.49125 16.3991 8.80571 16.3991C8.12018 16.3991 7.47555 16.6659 6.99068 17.1506C5.99009 18.1514 5.99009 19.7798 6.99068 20.7806L11.6515 25.4412C12.1362 25.9258 12.7808 26.1926 13.4664 26.1926C14.152 26.1926 14.7965 25.9258 15.2813 25.4411L25.011 15.7113C26.0115 14.7102 26.0115 13.082 25.0109 12.0816C24.5262 11.5968 23.8816 11.3301 23.1959 11.3301C22.5103 11.3301 21.8658 11.5969 21.381 12.0816L13.4663 19.9962L10.6205 17.1506ZM22.4973 13.1979C22.6838 13.0114 22.932 12.9087 23.196 12.9087C23.4601 12.9087 23.7081 13.0114 23.8948 13.1979C24.2799 13.583 24.2799 14.2099 23.8946 14.5952L14.1651 24.3248C13.9786 24.5113 13.7303 24.614 13.4664 24.614C13.2024 24.614 12.9541 24.5113 12.7676 24.3248L8.10692 19.6643C7.72165 19.279 7.72165 18.6521 8.10677 18.267C8.29336 18.0805 8.54159 17.9777 8.80564 17.9777C9.0697 17.9777 9.31777 18.0804 9.50429 18.2669L12.9081 21.6708C13.0562 21.8188 13.2569 21.9019 13.4663 21.9019C13.6757 21.9019 13.8763 21.8188 14.0243 21.6708L22.4973 13.1979Z" fill="#38BC80"/>
</svg>
