<svg width="40" height="42" viewBox="0 0 40 42" fill="none" xmlns="http://www.w3.org/2000/svg">
<path d="M14.2419 18.6013C18.9166 18.4526 18.9154 11.6748 14.2418 11.5269C9.56725 11.6755 9.56839 18.4533 14.2419 18.6013ZM14.2419 13.6319C14.618 13.6376 14.9768 13.791 15.2408 14.0589C15.5047 14.3269 15.6527 14.6879 15.6527 15.0641C15.6527 15.4402 15.5047 15.8013 15.2407 16.0693C14.9768 16.3372 14.618 16.4906 14.2419 16.4962C13.8657 16.4906 13.507 16.3372 13.243 16.0692C12.979 15.8012 12.8311 15.4402 12.8311 15.064C12.8311 14.6879 12.979 14.3268 13.243 14.0589C13.507 13.7909 13.8658 13.6376 14.2419 13.6319Z" fill="#38BC80" stroke="#38BC80" stroke-width="0.3"/>
<path d="M22.5781 26.9353C22.7268 31.6099 29.5046 31.6088 29.6526 26.9352C29.5039 22.2606 22.7261 22.2617 22.5781 26.9353ZM27.5475 26.9353C27.5418 27.3114 27.3885 27.6702 27.1205 27.9341C26.8525 28.1981 26.4914 28.3461 26.1153 28.346C25.7392 28.346 25.3781 28.1981 25.1101 27.9341C24.8422 27.6701 24.6888 27.3113 24.6832 26.9352C24.6888 26.5591 24.8422 26.2003 25.1102 25.9363C25.3782 25.6724 25.7392 25.5244 26.1154 25.5244C26.4915 25.5244 26.8526 25.6724 27.1205 25.9364C27.3885 26.2004 27.5419 26.5592 27.5475 26.9353Z" fill="#38BC80" stroke="#38BC80" stroke-width="0.3"/>
<path d="M12.1755 29.0022C12.2733 29.1 12.3893 29.1775 12.517 29.2305C12.6446 29.2834 12.7815 29.3106 12.9197 29.3106C13.0579 29.3106 13.1948 29.2834 13.3225 29.2305C13.4502 29.1775 13.5662 29.1 13.6639 29.0022L28.1808 14.4861C28.3781 14.2887 28.489 14.021 28.489 13.7419C28.489 13.4628 28.3781 13.1951 28.1808 12.9977C27.9834 12.8003 27.7157 12.6895 27.4366 12.6895C27.1575 12.6895 26.8898 12.8003 26.6924 12.9977L12.1755 27.5139C12.0778 27.6116 12.0002 27.7276 11.9473 27.8553C11.8944 27.983 11.8672 28.1198 11.8672 28.2581C11.8672 28.3963 11.8944 28.5331 11.9473 28.6608C12.0002 28.7885 12.0778 28.9045 12.1755 29.0022Z" fill="#38BC80" stroke="#38BC80" stroke-width="0.3"/>
<path d="M1.15864 25.1935C0.947757 25.839 0.947197 26.5347 1.15704 27.1805C1.36688 27.8263 1.77629 28.3888 2.32629 28.787L5.60248 31.1668C5.79146 31.3047 5.9322 31.4987 6.00471 31.7211L7.25597 35.5708C7.46447 36.2172 7.87287 36.7806 8.42227 37.1799C8.97167 37.5792 9.63368 37.7937 10.3128 37.7924H14.3616C14.596 37.7919 14.8245 37.8663 15.0136 38.0048L18.2887 40.3833C18.8372 40.7839 19.4989 40.9999 20.1781 41C20.8574 41.0001 21.5191 40.7844 22.0678 40.384L25.3433 38.0042C25.5325 37.8661 25.7608 37.792 25.995 37.7924H30.0437C30.7228 37.7937 31.3847 37.5793 31.9341 37.1802C32.4835 36.781 32.8919 36.2178 33.1006 35.5716L34.3518 31.7205C34.4246 31.4982 34.5655 31.3044 34.7548 31.1668L38.0299 28.787C38.58 28.3888 38.9896 27.8262 39.1995 27.1803C39.4094 26.5343 39.4088 25.8385 39.1979 25.1929L37.9466 21.3425C37.8736 21.1199 37.8736 20.8798 37.9466 20.6573L39.1979 16.8062C39.4088 16.1608 39.4093 15.465 39.1995 14.8193C38.9896 14.1735 38.5802 13.611 38.0302 13.2128L34.7541 10.8329C34.5651 10.695 34.4243 10.501 34.3518 10.2786L33.1006 6.42884C32.8921 5.78248 32.4837 5.21904 31.9343 4.81977C31.3849 4.4205 30.7228 4.20603 30.0437 4.20729H25.9949C25.7605 4.20778 25.5321 4.13336 25.3429 3.99487L22.0678 1.61569C21.519 1.21558 20.8574 1 20.1783 1C19.4991 1 18.8375 1.21558 18.2887 1.61569L15.0132 3.99554C14.824 4.13357 14.5957 4.20774 14.3615 4.20728H10.3128C9.63374 4.20602 8.97181 4.4204 8.42243 4.81953C7.87305 5.21866 7.46459 5.78192 7.25592 6.42813L6.00467 10.2792C5.93195 10.5015 5.79095 10.6953 5.60175 10.8329L2.32663 13.2127C1.77646 13.6109 1.36692 14.1735 1.15702 14.8195C0.947111 15.4654 0.947676 16.1612 1.15863 16.8068L2.40988 20.6572C2.48287 20.8798 2.48287 21.1199 2.40988 21.3424L1.15864 25.1935ZM4.41217 20.0063L3.16092 16.1566C3.08801 15.9338 3.08774 15.6937 3.16016 15.4707C3.23258 15.2478 3.37394 15.0537 3.56385 14.9163L6.83863 12.5364C7.38913 12.1388 7.79842 11.5759 8.00694 10.9296L9.25819 7.07849C9.33011 6.85552 9.47101 6.66117 9.66056 6.52347C9.85011 6.38577 10.0785 6.31186 10.3128 6.31239H14.3615C15.0406 6.31377 15.7025 6.09871 16.2511 5.69841L19.5262 3.31856C19.7157 3.18094 19.944 3.10682 20.1782 3.10682C20.4125 3.10682 20.6407 3.18094 20.8302 3.31856L24.105 5.69772C24.6535 6.09848 25.3156 6.31381 25.9949 6.3124H30.0437C30.278 6.31188 30.5065 6.38588 30.6961 6.52371C30.8856 6.66154 31.0265 6.85607 31.0982 7.07919L32.3495 10.9289C32.5578 11.5753 32.9669 12.1384 33.5172 12.5365L36.793 14.9163C36.9827 15.0537 37.1239 15.2477 37.1963 15.4705C37.2686 15.6933 37.2684 15.9333 37.1955 16.1559L35.9443 20.0063C35.7332 20.6519 35.7332 21.3479 35.9443 21.9935L37.1955 25.8432C37.2684 26.0659 37.2687 26.3061 37.1963 26.529C37.1239 26.7519 36.9825 26.9461 36.7926 27.0835L33.5178 29.4633C32.9673 29.861 32.558 30.4239 32.3495 31.0702L31.0983 34.9212C31.0263 35.1442 30.8854 35.3386 30.6959 35.4763C30.5064 35.614 30.278 35.6879 30.0437 35.6873H25.9949C25.3158 35.686 24.654 35.901 24.1054 36.3013L20.8303 38.6812C20.6407 38.819 20.4123 38.8932 20.178 38.8931C19.9436 38.893 19.7153 38.8185 19.5259 38.6805L16.2515 36.302C15.7029 35.9012 15.0409 35.6859 14.3616 35.6873H10.3128C10.0784 35.6878 9.84996 35.6138 9.66039 35.476C9.47083 35.3382 9.32999 35.1436 9.25822 34.9205L8.00697 31.0708C7.79865 30.4244 7.38962 29.8613 6.83931 29.4633L3.56351 27.0834C3.37376 26.9461 3.23254 26.752 3.16019 26.5292C3.08783 26.3064 3.08809 26.0664 3.16093 25.8438L4.41218 21.9934C4.62322 21.3478 4.62322 20.6518 4.41217 20.0063Z" fill="#38BC80" stroke="#38BC80" stroke-width="0.3"/>
</svg>
