<svg width="40" height="40" viewBox="0 0 40 40" fill="none" xmlns="http://www.w3.org/2000/svg">
<path d="M38.9927 1.71721C38.9869 1.67341 38.9803 1.63127 38.9671 1.58831C38.953 1.54121 38.934 1.49825 38.9125 1.45445C38.901 1.43049 38.8968 1.40488 38.8828 1.38174C38.8737 1.36687 38.8588 1.35695 38.8481 1.34291C38.8208 1.3049 38.7886 1.27185 38.7547 1.23797C38.7208 1.20409 38.687 1.1727 38.6481 1.14543C38.6341 1.13551 38.625 1.12147 38.6109 1.1132C38.5878 1.09916 38.5622 1.09585 38.5382 1.08429C38.4928 1.06198 38.4482 1.04297 38.4002 1.02893C38.3598 1.01818 38.3201 1.0124 38.2788 1.00744C38.23 1.00166 38.1829 0.998354 38.1342 1.00083C38.0887 1.00331 38.045 1.0124 38.0003 1.02314C37.9722 1.02975 37.9433 1.02727 37.9152 1.03719L1.55953 13.4312C1.23068 13.5419 1.00676 13.8484 1.00015 14.1963C0.99354 14.5442 1.20506 14.859 1.53061 14.9837L18.5162 21.5104L25.8559 38.5018C25.9873 38.805 26.2864 39 26.6144 39C26.6284 39 26.6417 39 26.6557 38.9992C27.0003 38.9818 27.2969 38.7529 27.4018 38.4249L38.9695 2.0692C38.9778 2.04358 38.9753 2.01714 38.9803 1.9907C38.9902 1.94443 38.9976 1.89981 38.9993 1.85271C39.0009 1.80644 38.9985 1.76265 38.9927 1.71721ZM4.25068 14.2583L35.0844 3.74652L18.9318 19.8992L4.25068 14.2583ZM26.4962 35.818L20.1175 21.051L36.3643 4.80331L26.4962 35.818Z" fill="#38BC80" stroke="#38BC80" stroke-width="0.4"/>
<path d="M13.9784 26.0218C13.6553 25.6988 13.1331 25.6988 12.81 26.0218L1.2423 37.5896C0.919233 37.9126 0.919233 38.4348 1.2423 38.7579C1.40342 38.919 1.61495 39 1.82647 39C2.038 39 2.24952 38.919 2.41064 38.7579L13.9784 27.1902C14.3014 26.8671 14.3014 26.3449 13.9784 26.0218Z" fill="#38BC80" stroke="#38BC80" stroke-width="0.4"/>
<path d="M16.114 31.8055L10.3302 37.5894C10.0071 37.9125 10.0071 38.4347 10.3302 38.7577C10.4913 38.9189 10.7028 38.9998 10.9144 38.9998C11.1259 38.9998 11.3374 38.9189 11.4985 38.7577L17.2824 32.9739C17.6055 32.6508 17.6055 32.1286 17.2824 31.8055C16.9593 31.4825 16.4371 31.4825 16.114 31.8055Z" fill="#38BC80" stroke="#38BC80" stroke-width="0.4"/>
<path d="M1.82647 29.9112C2.038 29.9112 2.24952 29.8302 2.41064 29.6691L8.1945 23.8853C8.51757 23.5622 8.51757 23.04 8.1945 22.7169C7.87143 22.3938 7.34923 22.3938 7.02616 22.7169L1.2423 28.5008C0.919232 28.8238 0.919232 29.346 1.2423 29.6691C1.40342 29.8302 1.61495 29.9112 1.82647 29.9112Z" fill="#38BC80" stroke="#38BC80" stroke-width="0.4"/>
</svg>
