<svg width="40" height="40" viewBox="0 0 40 40" fill="none" xmlns="http://www.w3.org/2000/svg">
<path d="M24.4769 23.8449H18.9685V22.3641H21.0244C22.5953 22.3641 24.102 21.7401 25.2128 20.6292C26.3236 19.5184 26.9477 18.0118 26.9477 16.4408C26.9477 14.8698 26.3236 13.3632 25.2128 12.2524C24.102 11.1415 22.5953 10.5175 21.0244 10.5175H17.7185C17.387 10.5175 17.0691 10.6492 16.8347 10.8836C16.6002 11.118 16.4685 11.4359 16.4685 11.7675V19.8641H14.2969C13.9654 19.8641 13.6474 19.9958 13.413 20.2302C13.1786 20.4647 13.0469 20.7826 13.0469 21.1141C13.0469 21.4456 13.1786 21.7636 13.413 21.998C13.6474 22.2324 13.9654 22.3641 14.2969 22.3641H16.4685V23.8449H14.2969C13.9654 23.8449 13.6474 23.9766 13.413 24.2111C13.1786 24.4455 13.0469 24.7634 13.0469 25.0949C13.0469 25.4265 13.1786 25.7444 13.413 25.9788C13.6474 26.2133 13.9654 26.3449 14.2969 26.3449H16.4685V28.2391C16.4685 28.5706 16.6002 28.8886 16.8347 29.123C17.0691 29.3574 17.387 29.4891 17.7185 29.4891C18.0501 29.4891 18.368 29.3574 18.6024 29.123C18.8368 28.8886 18.9685 28.5706 18.9685 28.2391V26.3449H24.4769C24.8084 26.3449 25.1263 26.2133 25.3608 25.9788C25.5952 25.7444 25.7269 25.4265 25.7269 25.0949C25.7269 24.7634 25.5952 24.4455 25.3608 24.2111C25.1263 23.9766 24.8084 23.8449 24.4769 23.8449ZM18.9685 13.0175H21.0244C21.9323 13.0175 22.803 13.3781 23.445 14.0201C24.087 14.6621 24.4477 15.5329 24.4477 16.4408C24.4477 17.3487 24.087 18.2194 23.445 18.8614C22.803 19.5034 21.9323 19.8641 21.0244 19.8641H18.9685V13.0175Z" fill="#38BC80"/>
<path d="M19.9978 40C16.8417 39.9997 13.7304 39.2524 10.9184 37.8192C8.10644 36.3861 5.67353 34.3078 3.81862 31.7543C1.96372 29.2007 0.739475 26.2445 0.24599 23.1271C-0.247495 20.0098 0.00378847 16.82 0.979295 13.8184C1.9548 10.8168 3.62684 8.08864 5.85869 5.85704C8.09055 3.62544 10.8189 1.95373 13.8206 0.978571C16.8223 0.00341604 20.0122 -0.247493 23.1295 0.246357C26.2467 0.740207 29.2029 1.9648 31.7562 3.82C32.0243 4.01505 32.2039 4.3086 32.2555 4.63609C32.3072 4.96357 32.2266 5.29816 32.0316 5.56625C31.8365 5.83434 31.543 6.01397 31.2155 6.06562C30.888 6.11727 30.5534 6.03671 30.2853 5.84167C26.8077 3.31817 22.5223 2.16422 18.2478 2.60022C13.9732 3.03622 10.0091 5.03161 7.11258 8.20527C4.21606 11.3789 2.59017 15.5084 2.54547 19.8049C2.50078 24.1014 4.04041 28.2638 6.87029 31.497C9.70016 34.7302 13.6219 36.8076 17.8865 37.3325C22.151 37.8573 26.4595 36.7927 29.9889 34.3421C33.5182 31.8915 36.0211 28.2266 37.0195 24.0475C38.0179 19.8684 37.4418 15.4679 35.4012 11.6867C35.2553 11.3961 35.2284 11.0602 35.3262 10.7501C35.4239 10.44 35.6386 10.1803 35.9247 10.0259C36.2109 9.87148 36.5459 9.83464 36.8587 9.92316C37.1715 10.0117 37.4375 10.2186 37.6003 10.5C39.2432 13.5471 40.0673 16.9684 39.9919 20.4294C39.9166 23.8903 38.9445 27.2725 37.1707 30.2453C35.3969 33.2181 32.882 35.6797 29.8719 37.3895C26.8619 39.0993 23.4596 39.9988 19.9978 40Z" fill="#38BC80"/>
<path d="M34.2656 9.08338C34.085 9.08361 33.9065 9.0447 33.7423 8.96932C33.5782 8.89393 33.4323 8.78387 33.3148 8.64671L33.0898 8.38755C32.9784 8.26526 32.8923 8.12206 32.8366 7.96626C32.7809 7.81045 32.7567 7.64514 32.7654 7.47991C32.7741 7.31468 32.8155 7.15282 32.8872 7.00371C32.9589 6.85461 33.0595 6.72122 33.1832 6.61129C33.3069 6.50137 33.4511 6.41708 33.6076 6.36333C33.7641 6.30958 33.9297 6.28743 34.0948 6.29817C34.2599 6.3089 34.4212 6.35231 34.5694 6.42588C34.7176 6.49944 34.8498 6.6017 34.9581 6.72671L35.2148 7.02088C35.3701 7.20242 35.4701 7.42464 35.503 7.66125C35.5359 7.89786 35.5003 8.13894 35.4004 8.35595C35.3006 8.57296 35.1406 8.75681 34.9395 8.88572C34.7384 9.01464 34.5045 9.08324 34.2656 9.08338Z" fill="#38BC80"/>
</svg>
