<svg width="31" height="34" viewBox="0 0 31 34" fill="none" xmlns="http://www.w3.org/2000/svg">
<path d="M18.9414 0H12.0507C5.38036 0 0 5.3108 0 11.9027V17.0039C0 21.6081 2.67445 25.7931 6.89064 27.7497V33.4487C6.89064 33.736 7.15808 34 7.49632 34C7.63004 34 7.78736 33.9456 7.89749 33.8447L12.8767 28.8988H18.9414C25.6196 28.8988 31 23.588 31 16.9961V11.895C31 5.3108 25.6196 0 18.9414 0ZM23.4722 22.3069L21.7496 24.0073C19.8932 25.7853 15.1264 23.7433 10.9102 19.5118C6.69399 15.2802 4.82187 10.4896 6.59959 8.71158L8.32225 7.01119C9.01446 6.38228 10.1 6.41334 10.7843 7.06554L13.2778 9.62777C13.915 10.311 13.915 11.3282 13.2228 12.0114C13.034 12.1978 12.8216 12.2987 12.5856 12.4074C11.7125 12.6714 11.2641 13.5022 11.4765 14.3718C11.9013 16.2585 14.3083 18.6111 16.1411 19.077C16.9906 19.2866 17.8637 18.813 18.1548 18.0055C18.4458 17.1669 19.3976 16.7011 20.3022 16.9884C20.5697 17.066 20.782 17.2523 20.9944 17.4076L23.4879 19.9699C24.1094 20.5832 24.1094 21.6314 23.4722 22.3069ZM17.0378 8.08267C16.849 8.08267 16.6917 8.08267 16.5344 8.13702C16.2433 8.19137 15.9287 7.95067 15.8972 7.61681C15.8658 7.28294 16.086 7.01895 16.4007 6.9879C16.613 6.93355 16.8254 6.93355 17.0378 6.93355C20.2157 6.93355 22.7643 9.49578 22.8115 12.586C22.8115 12.7956 22.8115 13.0053 22.7564 13.2149C22.7013 13.5022 22.4654 13.7662 22.1193 13.7118C21.7732 13.6575 21.5608 13.4245 21.6158 13.0829C21.6158 12.8966 21.6709 12.7413 21.6709 12.586C21.6473 10.1247 19.5785 8.08267 17.0378 8.08267ZM20.4831 12.6326C20.4281 12.9198 20.1921 13.1838 19.846 13.1295C19.5785 13.0751 19.3426 12.8655 19.3426 12.6326C19.3426 11.4058 18.3121 10.3809 17.0614 10.3809C16.7704 10.4353 16.4557 10.1713 16.4243 9.8607C16.3692 9.57342 16.6366 9.26285 16.9277 9.23179H17.0063C18.9964 9.23179 20.4831 10.7458 20.4831 12.6326ZM24.8802 14.4339C24.8252 14.7212 24.5341 14.9308 24.2431 14.9075C23.952 14.8842 23.7397 14.5659 23.7633 14.2786C23.7633 14.2243 23.7633 14.2243 23.7633 14.201C23.897 13.704 23.952 13.1838 23.952 12.6326C23.952 8.89016 20.8528 5.83101 17.0614 5.83101C16.8726 5.83101 16.7153 5.83101 16.558 5.83101C16.2669 5.88536 15.9523 5.62138 15.9523 5.3108C15.8972 5.02352 16.1647 4.71295 16.4557 4.71295C16.6681 4.71295 16.8805 4.6586 17.0614 4.6586C21.49 4.6586 25.1162 8.21466 25.1162 12.6093C25.0926 13.2071 25.014 13.8593 24.8802 14.4339Z" fill="white"/>
</svg>
