<svg width="34" height="35" viewBox="0 0 34 35" fill="none" xmlns="http://www.w3.org/2000/svg">
<path d="M16.9565 0.599609C7.59542 0.599609 0 8.19503 0 17.5561C0 21.3045 1.21329 24.757 3.26504 27.5683L1.10479 33.9603L7.84202 31.8592C10.4758 33.5361 13.6027 34.5127 16.9565 34.5127C26.3176 34.5127 33.913 26.9172 33.913 17.5561C33.913 8.19503 26.3176 0.599609 16.9565 0.599609ZM24.7196 26.6509C21.642 27.8839 17.9725 26.6904 13.9578 23.6423C9.94309 20.5943 7.29949 16.3034 7.12194 13.1173C6.94438 9.93112 9.53866 8.32326 10.9492 8.33313C12.3598 8.34299 13.9085 12.8509 13.9282 13.5414C13.9479 14.2418 12.202 15.4847 12.1329 16.0765C12.0639 16.6684 14.5102 19.5882 15.5459 20.3773C16.5718 21.1566 18.6926 22.6559 19.7875 22.5178C20.8726 22.3699 21.5927 20.1899 22.2832 20.0518C22.9737 19.9137 26.7418 21.7879 27.1166 22.2712C27.4915 22.7644 27.452 25.5658 24.7196 26.6509Z" fill="#38BC80"/>
</svg>
