<svg width="69" height="69" viewBox="0 0 69 69" fill="none" xmlns="http://www.w3.org/2000/svg">
<g opacity="0.7">
<path d="M65.1563 46.3449C63.376 44.5688 61.1246 43.3393 58.668 42.8016C56.2115 42.264 53.6523 42.4406 51.2929 43.3107L26.3874 18.4056C27.2921 15.9619 27.4501 13.3044 26.8413 10.7707C26.2324 8.237 24.8843 5.94144 22.968 4.1756C21.0517 2.40975 18.6539 1.25331 16.0789 0.853172C13.504 0.453031 10.8683 0.827246 8.50653 1.92828C8.25838 2.04432 8.04183 2.21843 7.87521 2.43587C7.70859 2.65331 7.5968 2.90769 7.5493 3.17749C7.5018 3.44728 7.51999 3.72454 7.60233 3.98582C7.68467 4.24709 7.82873 4.48469 8.02233 4.6785L13.3597 10.0164C13.5694 10.2207 13.7365 10.4646 13.8512 10.734C13.9659 11.0033 14.026 11.2928 14.0279 11.5856C14.0298 11.8784 13.9735 12.1686 13.8624 12.4395C13.7512 12.7104 13.5874 12.9565 13.3803 13.1635C13.1733 13.3705 12.9272 13.5344 12.6563 13.6455C12.3854 13.7566 12.0952 13.8129 11.8024 13.8109C11.5096 13.809 11.2201 13.7489 10.9507 13.6342C10.6814 13.5194 10.4375 13.3523 10.2332 13.1426L4.89572 7.80511C4.70184 7.61132 4.4641 7.46712 4.20266 7.38472C3.94121 7.30233 3.66375 7.28417 3.3938 7.33178C3.12384 7.3794 2.86934 7.49138 2.65186 7.65825C2.43437 7.82512 2.26032 8.04195 2.14444 8.29037C1.04357 10.6531 0.669702 13.2898 1.07031 15.8655C1.47091 18.4411 2.62792 20.8397 4.3944 22.7565C6.16089 24.6733 8.45716 26.0219 10.9916 26.631C13.5261 27.2402 16.1844 27.0824 18.6291 26.1777L43.5354 51.0837C42.631 53.5275 42.4734 56.1849 43.0825 58.7184C43.6916 61.252 45.0399 63.5474 46.9563 65.313C48.8726 67.0787 51.2705 68.2349 53.8454 68.6349C56.4202 69.035 59.0559 68.6607 61.4176 67.5596C61.6655 67.4434 61.8818 67.2692 62.0482 67.0517C62.2146 66.8343 62.3262 66.5799 62.3735 66.3102C62.4208 66.0405 62.4025 65.7634 62.3201 65.5023C62.2378 65.2411 62.0937 65.0037 61.9002 64.81L56.5623 59.4721C56.1523 59.0565 55.9234 58.4957 55.9253 57.912C55.9273 57.3282 56.1601 56.7689 56.5728 56.3562C56.9856 55.9434 57.5449 55.7106 58.1286 55.7086C58.7123 55.7066 59.2732 55.9355 59.6888 56.3455L65.0285 61.6853C65.2225 61.8786 65.4603 62.0223 65.7215 62.1042C65.9828 62.1862 66.26 62.204 66.5297 62.1562C66.7993 62.1085 67.0535 61.9964 67.2707 61.8297C67.4879 61.6629 67.6617 61.4462 67.7775 61.1981C68.9113 58.7512 69.2679 56.0156 68.7992 53.3599C68.3306 50.7041 67.0591 48.2558 65.1563 46.3449ZM65.5108 57.4656L62.0397 53.9941C61.0002 52.9624 59.5943 52.3847 58.1297 52.3875C56.6652 52.3902 55.2615 52.9733 54.2259 54.0088C53.1903 55.0444 52.6074 56.4482 52.6046 57.9127C52.6019 59.3772 53.1796 60.7831 54.2113 61.8226L57.6802 65.2914C55.8971 65.6292 54.0552 65.4661 52.3592 64.8201C50.6633 64.1741 49.1796 63.0706 48.0731 61.632C46.9667 60.1935 46.2807 58.4764 46.0915 56.6715C45.9022 54.8665 46.2172 53.0444 47.0012 51.4077L47.5028 50.349L19.3584 22.2047L18.2977 22.711C16.6599 23.493 14.8375 23.8061 13.0326 23.6155C11.2277 23.4249 9.51095 22.7381 8.07268 21.6311C6.6344 20.5242 5.53089 19.0405 4.88454 17.3445C4.23819 15.6486 4.07428 13.8068 4.41099 12.0234L7.88216 15.4945C8.92029 16.5327 10.3283 17.1159 11.7964 17.1159C13.2646 17.1159 14.6726 16.5327 15.7107 15.4945C16.7488 14.4564 17.332 13.0484 17.332 11.5803C17.332 10.1121 16.7488 8.70414 15.7107 7.66601L12.2419 4.1967C14.025 3.85879 15.8669 4.0219 17.5629 4.66789C19.2589 5.31388 20.7425 6.41746 21.849 7.85599C22.9554 9.29452 23.6414 11.0117 23.8306 12.8166C24.0198 14.6216 23.7048 16.4436 22.9207 18.0803L22.4191 19.1384L50.5635 47.2827L51.6243 46.7764C53.2622 45.9943 55.0847 45.6811 56.8897 45.8718C58.6948 46.0625 60.4117 46.7495 61.85 47.8566C63.2883 48.9637 64.3918 50.4477 65.038 52.1438C65.6842 53.84 65.8479 55.682 65.5108 57.4655V57.4656Z" fill="white"/>
<path d="M39.9258 27.1358L51.4727 15.5887C51.7691 15.292 51.9899 14.9283 52.1163 14.5284C52.2427 14.1285 52.2711 13.704 52.1991 13.2908L51.5789 9.74276L62.8609 4.12002C62.9119 4.09403 62.9699 4.08491 63.0265 4.09396C63.0831 4.10301 63.1354 4.12977 63.1758 4.17039L65.3887 6.38311C65.43 6.42511 65.4568 6.47928 65.4651 6.53764C65.4733 6.596 65.4626 6.65547 65.4345 6.70728L59.8163 17.9801L56.2684 17.36C55.8552 17.2879 55.4307 17.3162 55.0307 17.4426C54.6307 17.5691 54.267 17.7898 53.9703 18.0863L42.4233 29.6333C42.1115 29.9451 41.9364 30.3679 41.9364 30.8089C41.9364 31.2498 42.1116 31.6727 42.4234 31.9844C42.7352 32.2962 43.1581 32.4713 43.599 32.4713C44.0399 32.4713 44.4628 32.2961 44.7746 31.9843L56.06 20.6988L60.1454 21.4129C60.582 21.5247 61.0442 21.4776 61.4493 21.2802C61.8545 21.0827 62.1762 20.7477 62.3572 20.335L68.4057 8.19944C68.7489 7.52351 68.8694 6.75624 68.7497 6.00764C68.63 5.25904 68.2764 4.56756 67.7394 4.03235L65.5269 1.81937C64.9931 1.28333 64.3034 0.929827 63.5566 0.809405C62.8097 0.688983 62.0439 0.807813 61.3687 1.1489L49.2248 7.20147C48.8119 7.38236 48.4768 7.70412 48.2793 8.10928C48.0818 8.51444 48.0348 8.97661 48.1466 9.41326L48.8608 13.4985L37.5753 24.784C37.2656 25.0962 37.0922 25.5184 37.0931 25.9581C37.094 26.3979 37.2691 26.8193 37.58 27.1303C37.891 27.4412 38.3125 27.6163 38.7522 27.6172C39.192 27.6181 39.6141 27.4447 39.9263 27.135L39.9258 27.1358ZM29.5678 42.4887L25.8245 46.2327L23.3269 43.7346L27.0709 39.9906C27.3806 39.6784 27.554 39.2562 27.5531 38.8164C27.5522 38.3767 27.3772 37.9552 27.0662 37.6443C26.7553 37.3333 26.3338 37.1582 25.894 37.1573C25.4543 37.1565 25.0321 37.3298 24.7199 37.6395L20.9758 41.3836L19.343 39.7507C19.0102 39.4195 18.5598 39.2337 18.0903 39.2339C17.6209 39.234 17.1706 39.4202 16.8381 39.7517L3.46808 53.1219C2.61171 53.9724 1.93165 54.9836 1.4669 56.0975C1.00215 57.2114 0.761851 58.406 0.759779 59.613C0.757708 60.8199 0.993906 62.0154 1.45483 63.1309C1.91576 64.2463 2.59234 65.2598 3.44578 66.1133C4.29923 66.9667 5.31275 67.6433 6.42822 68.1042C7.54369 68.5651 8.73918 68.8013 9.94613 68.7992C11.1531 68.7971 12.3477 68.5568 13.4616 68.0921C14.5755 67.6273 15.5867 66.9472 16.4372 66.0909L29.8074 52.7209C30.1396 52.3885 30.3262 51.9379 30.3262 51.468C30.3262 50.9981 30.1396 50.5475 29.8074 50.2152L28.1754 48.5831L31.9194 44.8397C32.0748 44.6856 32.1982 44.5022 32.2826 44.3003C32.367 44.0983 32.4106 43.8817 32.4111 43.6628C32.4115 43.4439 32.3687 43.2271 32.2852 43.0248C32.2016 42.8225 32.0789 42.6387 31.9241 42.4839C31.7694 42.3292 31.5856 42.2065 31.3833 42.1229C31.181 42.0394 30.9642 41.9966 30.7453 41.997C30.5264 41.9975 30.3098 42.0411 30.1078 42.1255C29.9058 42.2099 29.7225 42.3333 29.5684 42.4887H29.5678ZM14.0863 63.74C12.9882 64.8277 11.5041 65.4362 9.95853 65.4326C8.41297 65.4289 6.93175 64.8134 5.83884 63.7205C4.74593 62.6276 4.13029 61.1465 4.12657 59.6009C4.12284 58.0553 4.73134 56.5712 5.81897 55.4731L18.0904 43.2017L26.3576 51.4689L14.0863 63.74Z" fill="white"/>
<path d="M16.1053 51.169L10.348 57.0058C10.041 57.3203 9.87095 57.7434 9.87507 58.1828C9.8792 58.6223 10.0571 59.0422 10.37 59.3508C10.6828 59.6593 11.1051 59.8315 11.5445 59.8297C11.984 59.8278 12.4048 59.652 12.715 59.3407L18.4728 53.5039C18.7824 53.1899 18.9547 52.7658 18.9516 52.3249C18.9485 51.884 18.7704 51.4623 18.4565 51.1527C18.1425 50.843 17.7184 50.6708 17.2775 50.6739C16.8366 50.6769 16.4149 50.855 16.1053 51.169Z" fill="white"/>
</g>
</svg>
