<svg width="82" height="82" viewBox="0 0 82 82" fill="none" xmlns="http://www.w3.org/2000/svg">
<path d="M77.9003 36.9001H77.8456C77.3273 21.7485 67.552 8.47268 53.2373 3.47955C52.9319 1.48386 51.2191 0.00768753 49.2002 0H32.8001C30.7812 0.00768753 29.0684 1.48386 28.763 3.47955C14.4483 8.47268 4.67299 21.7485 4.15468 36.9001H4.10002C1.83561 36.9001 0 38.7357 0 41.0001V43.7335C0 45.9979 1.83561 47.8335 4.10002 47.8335H77.9003C80.1647 47.8335 82.0003 45.9979 82.0003 43.7335V41.0001C82.0003 38.7357 80.1647 36.9001 77.9003 36.9001ZM28.7001 6.41106V30.0668C28.7001 30.4292 28.8441 30.7769 29.1004 31.0332C29.3567 31.2895 29.7043 31.4334 30.0668 31.4334C30.4292 31.4334 30.7769 31.2895 31.0332 31.0332C31.2895 30.7769 31.4334 30.4292 31.4334 30.0668V4.10002C31.4334 3.73755 31.5774 3.38993 31.8337 3.13363C32.09 2.87733 32.4377 2.73334 32.8001 2.73334H39.6335V32.8001C39.6335 33.1626 39.7775 33.5102 40.0338 33.7665C40.2901 34.0228 40.6377 34.1668 41.0001 34.1668C41.3626 34.1668 41.7102 34.0228 41.9665 33.7665C42.2228 33.5102 42.3668 33.1626 42.3668 32.8001V2.73334H49.2002C49.5626 2.73334 49.9103 2.87733 50.1666 3.13363C50.4229 3.38993 50.5669 3.73755 50.5669 4.10002V30.0668C50.5669 30.4292 50.7108 30.7769 50.9671 31.0332C51.2234 31.2895 51.5711 31.4334 51.9335 31.4334C52.296 31.4334 52.6436 31.2895 52.8999 31.0332C53.1562 30.7769 53.3002 30.4292 53.3002 30.0668V6.41106C66.0225 11.2863 74.6064 23.285 75.1123 36.9001H6.88803C7.39386 23.285 15.9778 11.2863 28.7001 6.41106ZM79.267 43.7335C79.267 44.096 79.123 44.4436 78.8667 44.6999C78.6104 44.9562 78.2627 45.1002 77.9003 45.1002H4.10002C3.73755 45.1002 3.38993 44.9562 3.13363 44.6999C2.87733 44.4436 2.73334 44.096 2.73334 43.7335V41.0001C2.73334 40.6377 2.87733 40.2901 3.13363 40.0338C3.38993 39.7775 3.73755 39.6335 4.10002 39.6335H77.9003C78.2627 39.6335 78.6104 39.7775 78.8667 40.0338C79.123 40.2901 79.267 40.6377 79.267 41.0001V43.7335ZM34.1668 60.1336H16.4001C14.1357 60.1336 12.3 61.9692 12.3 64.2336V69.7003C12.3 70.0627 12.444 70.4103 12.7003 70.6666C12.9566 70.9229 13.3043 71.0669 13.6667 71.0669C14.0292 71.0669 14.3768 70.9229 14.6331 70.6666C14.8894 70.4103 15.0334 70.0627 15.0334 69.7003V64.2336C15.0334 63.8711 15.1774 63.5235 15.4337 63.2672C15.69 63.0109 16.0376 62.8669 16.4001 62.8669H34.1668C34.5293 62.8669 34.8769 62.7229 35.1332 62.4666C35.3895 62.2103 35.5335 61.8627 35.5335 61.5002C35.5335 61.1378 35.3895 60.7901 35.1332 60.5338C34.8769 60.2775 34.5293 60.1336 34.1668 60.1336Z" fill="white"/>
<path d="M80.6336 60.1337H75.0303C74.3765 56.9543 71.5796 54.6711 68.3336 54.667H13.6667C9.8947 54.6714 6.8378 57.7283 6.83336 61.5004H1.36667C1.00421 61.5004 0.65659 61.6443 0.400289 61.9006C0.143988 62.1569 0 62.5046 0 62.867L0 73.8004C0 74.1629 0.143988 74.5105 0.400289 74.7668C0.65659 75.0231 1.00421 75.1671 1.36667 75.1671H7.24336C8.4544 79.215 12.1748 81.9914 16.4001 82.0004H24.6001C27.6749 81.9917 30.6954 81.1894 33.3693 79.6712C36.0432 78.153 38.2799 75.9703 39.8631 73.3344C39.9836 73.1415 40.1512 72.9824 40.3501 72.8721C40.549 72.7618 40.7727 72.704 41.0001 72.704C41.2276 72.704 41.4513 72.7618 41.6502 72.8721C41.8491 72.9824 42.0167 73.1415 42.1372 73.3344C43.7204 75.9703 45.9571 78.153 48.631 79.6712C51.3049 81.1894 54.3254 81.9917 57.4002 82.0004H65.6002C70.3516 81.9948 74.3789 78.5029 75.0576 73.8004H80.6336C80.9961 73.8004 81.3437 73.6564 81.6 73.4001C81.8563 73.1438 82.0003 72.7962 82.0003 72.4337V61.5004C82.0003 61.1379 81.8563 60.7903 81.6 60.534C81.3437 60.2777 80.9961 60.1337 80.6336 60.1337ZM6.83336 72.4337H2.73334V68.3337H6.83336V72.4337ZM6.83336 65.6004H2.73334V64.2337H6.83336V65.6004ZM72.4336 72.4337C72.4292 76.2057 69.3723 79.2626 65.6002 79.2671H57.4002C54.7978 79.2595 52.2415 78.5803 49.9785 77.2953C47.7155 76.0104 45.8224 74.1631 44.4824 71.9322C43.3185 70.0074 40.8146 69.3907 38.89 70.5546C38.3261 70.8955 37.8534 71.3682 37.5124 71.9322C36.1729 74.1622 34.2807 76.009 32.0187 77.2939C29.7567 78.5789 27.2015 79.2585 24.6001 79.2671H16.4001C12.628 79.2626 9.57114 76.2057 9.5667 72.4337V61.5004C9.5667 59.2359 11.4023 57.4003 13.6667 57.4003H68.3336C70.598 57.4003 72.4336 59.2359 72.4336 61.5004V72.4337ZM79.267 71.0671H75.1669V66.967H79.267V71.0671ZM79.267 64.2337H75.1669V62.867H79.267V64.2337Z" fill="white"/>
<path d="M42.3676 60.1338H39.6342C39.2718 60.1338 38.9242 60.2778 38.6679 60.5341C38.4116 60.7904 38.2676 61.138 38.2676 61.5005C38.2676 61.8629 38.4116 62.2105 38.6679 62.4668C38.9242 62.7231 39.2718 62.8671 39.6342 62.8671H42.3676C42.7301 62.8671 43.0777 62.7231 43.334 62.4668C43.5903 62.2105 43.7343 61.8629 43.7343 61.5005C43.7343 61.138 43.5903 60.7904 43.334 60.5341C43.0777 60.2778 42.7301 60.1338 42.3676 60.1338Z" fill="white"/>
</svg>
