<svg width="77" height="93" viewBox="0 0 77 93" fill="none" xmlns="http://www.w3.org/2000/svg">
<path d="M54.8018 53.2144L50.3234 52.3526C48.9723 52.0925 47.9916 50.9053 47.9916 49.5294V47.8472C48.97 47.2477 49.9132 46.551 50.8186 45.7553C54.0313 42.9313 56.0159 38.9262 56.4167 34.4658C58.7633 34.3851 60.6428 32.4297 60.6329 30.0461L60.6188 26.6619C60.6143 25.6205 60.2423 24.6142 59.5682 23.8204V19.6727C59.5682 19.3147 59.426 18.9714 59.1729 18.7183C58.9198 18.4652 58.5765 18.323 58.2185 18.323C57.8606 18.323 57.5173 18.4652 57.2641 18.7183C57.011 18.9714 56.8688 19.3147 56.8688 19.6727V22.5635C44.5713 19.1062 32.5596 19.106 20.2635 22.5635V15.5647C20.2614 13.3652 20.995 11.2283 22.3476 9.49389C23.7002 7.7595 25.5941 6.52736 27.7278 5.99356L35.221 4.11136C37.4172 3.56181 39.7149 3.56181 41.9111 4.11136L49.4044 5.99356C53.0783 6.91636 55.9327 9.91046 56.6763 13.6214C56.7467 13.9724 56.9536 14.281 57.2515 14.4795C57.399 14.5777 57.5644 14.646 57.7383 14.6803C57.9122 14.7147 58.0911 14.7144 58.2649 14.6796C58.4387 14.6448 58.6039 14.5761 58.7512 14.4774C58.8984 14.3787 59.0248 14.252 59.123 14.1045C59.2213 13.9569 59.2896 13.7915 59.3239 13.6176C59.3582 13.4437 59.358 13.2648 59.3232 13.091C58.3758 8.36417 54.7406 4.55072 50.062 3.37554L42.5687 1.49334C39.9408 0.835552 37.1912 0.835552 34.5632 1.49334L27.07 3.37554C24.3526 4.05528 21.9407 5.62443 20.2181 7.83324C18.4954 10.0421 17.5612 12.7636 17.5639 15.5647V23.8206C16.8899 24.6144 16.5178 25.6207 16.5133 26.662L16.4993 30.0463C16.4893 32.4297 18.3689 34.3851 20.7155 34.466C21.1163 38.9266 23.1008 42.9314 26.3136 45.7554C27.2187 46.5512 28.1622 47.2477 29.1406 47.8474V49.5296C29.1406 50.7867 28.3687 51.9575 26.8212 52.3492L22.3305 53.2148C9.93929 55.5994 1 66.4915 1 79.0418V84.5346C1 88.651 4.34886 92 8.46535 92H68.667C72.7833 92 76.1323 88.6511 76.1323 84.5346V79.0418C76.1323 66.4422 67.1456 55.59 54.8018 53.2144ZM55.2589 56.0731C56.6962 56.4124 58.0982 56.8864 59.4465 57.4889V72.6743C58.5304 72.0527 57.4484 71.7209 56.3413 71.7222H55.2591L55.2589 56.0731ZM55.5861 25.0066C54.1927 26.3789 52.5686 28.5346 49.275 27.9657C45.6718 27.3444 42.1194 27.0337 38.5662 27.0337C35.0138 27.0337 31.4607 27.3444 27.8582 27.9655C24.5888 28.5298 22.9499 26.3908 21.5407 25.0081C32.9713 21.8927 44.1541 21.8922 55.5861 25.0066ZM28.096 43.7277C25.3789 41.3393 23.7092 37.9234 23.3945 34.1091C23.2848 32.7807 22.1949 31.7746 20.8594 31.7689C19.9398 31.765 19.195 30.9971 19.1989 30.0573L19.2129 26.6731C19.2131 26.6215 19.217 26.5705 19.2218 26.5197C21.2901 28.521 23.6104 31.4376 28.3168 30.6259C35.2139 29.4365 41.9193 29.4365 48.8161 30.626C53.6952 31.4673 56.1785 28.1882 57.9102 26.5126C57.9153 26.5657 57.9192 26.6192 57.9194 26.6731L57.9334 30.0573C57.9374 30.9971 57.1925 31.7648 56.2731 31.7689C54.9376 31.7746 53.8477 32.7807 53.738 34.1093C53.4233 37.9234 51.7537 41.3395 49.0365 43.7279C42.8204 49.1916 34.3748 49.247 28.096 43.7277ZM47.8892 54.2396L45.6083 56.072C41.732 59.1863 36.1209 59.1662 32.2669 56.0238L29.6948 53.9268C32.0961 52.0648 31.8197 49.305 31.8402 49.2131C36.2366 51.003 40.8428 51.0245 45.2921 49.2131C45.3078 49.2746 45.0254 52.4246 47.8892 54.2396ZM24.9185 55.4654L26.8533 55.093L30.561 58.1161C35.3984 62.0602 42.3812 62.1276 47.2989 58.1764L50.9711 55.2263L52.5593 55.5321V71.7224H24.9185V55.4654ZM14.1077 80.0659C13.2836 81.0621 12.8323 82.3142 12.8314 83.6071V89.3002H8.46535C5.83756 89.3002 3.6996 87.1623 3.6996 84.5345V80.0131H14.1514L14.1077 80.0659ZM15.3321 77.3135H3.76376C4.33731 69.4811 8.77656 62.5721 15.3319 58.7042V62.6075C15.3319 62.9654 15.4741 63.3087 15.7272 63.5618C15.9804 63.815 16.3237 63.9572 16.6816 63.9572C17.0396 63.9572 17.3829 63.815 17.636 63.5618C17.8891 63.3087 18.0313 62.9654 18.0313 62.6075V57.3378C19.3822 56.7603 20.7842 56.3106 22.2189 55.9947V71.7224H21.1207C20.0201 71.7211 18.9442 72.049 18.0313 72.664V68.9174C18.0313 68.5594 17.8891 68.2161 17.636 67.963C17.3829 67.7098 17.0396 67.5676 16.6816 67.5676C16.3237 67.5676 15.9804 67.7098 15.7272 67.963C15.4741 68.2161 15.3319 68.5594 15.3319 68.9174L15.3321 77.3135ZM61.6017 89.3002H15.5306V83.6071C15.5306 82.1504 16.5291 81.4901 16.9934 80.814C17.816 79.817 18.2671 78.5654 18.2697 77.2728C18.2697 75.7007 19.5486 74.4218 21.1207 74.4218H56.341C57.913 74.4218 59.192 75.7007 59.192 77.2728C59.2071 77.3741 59.0491 79.0306 60.2568 80.6878C60.7637 81.5043 61.6013 82.1258 61.6013 83.4613V89.3002H61.6017ZM62.1459 77.3135V58.9122C68.5115 62.8167 72.8051 69.6196 73.3686 77.3135H62.1459ZM73.4327 84.5343C73.4327 87.1621 71.2948 89.3 68.667 89.3H64.3011V83.4613C64.3035 82.286 63.9304 81.1407 63.2363 80.1923L63.1057 80.0131H73.4327V84.5343Z" fill="white" stroke="white" stroke-width="0.2"/>
<path d="M33.5545 8.36816C31.8024 8.36816 30.377 9.79359 30.377 11.5457V13.8889C30.377 15.641 31.8024 17.0665 33.5545 17.0665H43.5762C45.3283 17.0665 46.7537 15.641 46.7537 13.8889V11.5457C46.7537 9.79359 45.3283 8.36816 43.5762 8.36816H33.5545ZM44.0543 11.5457V13.8889C44.0541 14.0157 44.0037 14.1372 43.9141 14.2268C43.8245 14.3165 43.7029 14.3669 43.5762 14.367H33.5545C33.4277 14.3669 33.3062 14.3165 33.2166 14.2268C33.1269 14.1372 33.0765 14.0157 33.0764 13.8889V11.5457C33.0765 11.4189 33.1269 11.2974 33.2166 11.2078C33.3062 11.1181 33.4277 11.0677 33.5545 11.0676H43.5762C43.7029 11.0677 43.8245 11.1181 43.9141 11.2078C44.0037 11.2974 44.0541 11.4189 44.0543 11.5457Z" fill="white" stroke="white" stroke-width="0.2"/>
</svg>
