<svg width="88" height="88" viewBox="0 0 88 88" fill="none" xmlns="http://www.w3.org/2000/svg">
<path d="M2.43328 3.86672H8.16655V22.5C8.16655 26.4515 11.3818 29.6667 15.3333 29.6667H56.9V31.1C56.8999 31.2882 56.937 31.4746 57.009 31.6486C57.081 31.8225 57.1865 31.9805 57.3196 32.1136C57.4528 32.2467 57.6108 32.3523 57.7847 32.4243C57.9586 32.4963 58.145 32.5333 58.3333 32.5333H59.7666V45.4333C59.7666 47.8045 61.6953 49.7333 64.0666 49.7333H66.9333V55.4666C66.9332 55.6548 66.9702 55.8412 67.0422 56.0151C67.1143 56.189 67.2198 56.3471 67.3529 56.4802C67.486 56.6133 67.6441 56.7189 67.818 56.7909C67.9919 56.8629 68.1783 56.8999 68.3666 56.8998C68.5548 56.8999 68.7412 56.8629 68.9151 56.7909C69.0891 56.7189 69.2471 56.6133 69.3802 56.4802C69.5133 56.3471 69.6189 56.189 69.6909 56.0151C69.7629 55.8412 69.7999 55.6548 69.7998 55.4666V49.7333H72.6665C75.0378 49.7333 76.9666 47.8045 76.9666 45.4333V32.5333H78.3998C78.5881 32.5333 78.7745 32.4963 78.9484 32.4243C79.1223 32.3523 79.2804 32.2467 79.4135 32.1136C79.5466 31.9805 79.6521 31.8225 79.7241 31.6486C79.7962 31.4746 79.8332 31.2882 79.8331 31.1V13.9C79.8332 13.7118 79.7962 13.5254 79.7241 13.3514C79.6521 13.1775 79.5466 13.0195 79.4135 12.8864C79.2804 12.7533 79.1223 12.6477 78.9484 12.5757C78.7745 12.5037 78.5881 12.4667 78.3998 12.4667H74.0998V6.73328C74.0999 6.54504 74.0629 6.35863 73.9909 6.18471C73.9189 6.01078 73.8133 5.85276 73.6802 5.71965C73.5471 5.58654 73.389 5.48097 73.2151 5.40897C73.0412 5.33696 72.8548 5.29993 72.6665 5.3H64.0666C63.8783 5.29993 63.6919 5.33696 63.518 5.40897C63.3441 5.48097 63.186 5.58654 63.0529 5.71965C62.9198 5.85276 62.8142 6.01078 62.7422 6.18471C62.6702 6.35863 62.6332 6.54504 62.6333 6.73328V12.4666H58.3333C58.145 12.4665 57.9586 12.5035 57.7847 12.5755C57.6108 12.6475 57.4528 12.7531 57.3196 12.8862C57.1865 13.0193 57.081 13.1773 57.009 13.3513C56.937 13.5252 56.8999 13.7116 56.9 13.8998V15.3331H22.5V3.86672H28.2333C29.0256 3.86672 29.6666 3.22491 29.6666 2.43345C29.6666 1.64198 29.0256 1 28.2333 1H2.43328C1.64114 1 1 1.64181 1 2.43328C1 3.22475 1.64114 3.86672 2.43328 3.86672ZM74.1 45.4333C74.1 46.2234 73.4575 46.8666 72.6667 46.8666H64.0667C63.2759 46.8666 62.6334 46.2234 62.6334 45.4333V42.5666H74.1V45.4333ZM74.1 39.7H62.6333V32.5333H74.1V39.7ZM65.5 8.16672H71.2333V12.4667H65.5V8.16672ZM59.7667 28.2333V15.3334H76.9667V29.6667H59.7667V28.2333ZM11.0333 3.86672H19.6333V16.7667C19.6332 16.955 19.6702 17.1414 19.7422 17.3153C19.8142 17.4892 19.9198 17.6472 20.0529 17.7803C20.186 17.9135 20.3441 18.019 20.518 18.091C20.6919 18.163 20.8783 18.2001 21.0666 18.2H56.9V26.8H15.3333C12.9621 26.8 11.0333 24.8712 11.0333 22.5V3.86672ZM75.5333 64.0667H12.4667C6.14404 64.0667 1 69.2108 1 75.5333C1 81.856 6.14404 87 12.4667 87H75.5334C81.856 87 87 81.856 87 75.5333C87 69.2108 81.856 64.0667 75.5333 64.0667ZM75.5333 84.1333H12.4667C7.72446 84.1333 3.86672 80.2755 3.86672 75.5333C3.86672 70.791 7.72446 66.9333 12.4667 66.9333H75.5334C80.2757 66.9333 84.1334 70.791 84.1334 75.5333C84.1333 80.2757 80.2757 84.1333 75.5333 84.1333Z" fill="white" stroke="white" stroke-width="0.1"/>
<path d="M44.0016 69.8008C40.8396 69.8008 38.2683 72.3727 38.2683 75.5341C38.2683 78.6954 40.8396 81.2673 44.0016 81.2673C47.1636 81.2673 49.7348 78.6952 49.7348 75.5341C49.7348 72.3729 47.1636 69.8008 44.0016 69.8008ZM44.0016 78.4008C42.4213 78.4008 41.1348 77.1151 41.1348 75.5341C41.1348 73.953 42.4211 72.6673 44.0016 72.6673C45.582 72.6673 46.8683 73.953 46.8683 75.5341C46.8683 77.1151 45.5818 78.4008 44.0016 78.4008ZM58.3348 69.8008C55.1728 69.8008 52.6016 72.3727 52.6016 75.5341C52.6016 78.6954 55.1728 81.2673 58.3348 81.2673C61.4968 81.2673 64.0681 78.6952 64.0681 75.5341C64.0681 72.3729 61.4968 69.8008 58.3348 69.8008ZM58.3348 78.4008C56.7546 78.4008 55.4681 77.1151 55.4681 75.5341C55.4681 73.953 56.7544 72.6673 58.3348 72.6673C59.9151 72.6673 61.2016 73.953 61.2016 75.5341C61.2016 77.1151 59.9153 78.4008 58.3348 78.4008ZM72.6683 69.8008C69.5063 69.8008 66.935 72.3727 66.935 75.5341C66.935 78.6954 69.5063 81.2673 72.6683 81.2673C75.8303 81.2673 78.4016 78.6952 78.4016 75.5341C78.4016 72.3729 75.8303 69.8008 72.6683 69.8008ZM72.6683 78.4008C71.088 78.4008 69.8016 77.1151 69.8016 75.5341C69.8016 73.953 71.0879 72.6673 72.6683 72.6673C74.2487 72.6673 75.535 73.953 75.535 75.5341C75.535 77.1151 74.2485 78.4008 72.6683 78.4008ZM29.6683 69.8008C26.5063 69.8008 23.935 72.3727 23.935 75.5341C23.935 78.6954 26.5063 81.2673 29.6683 81.2673C32.8303 81.2673 35.4016 78.6952 35.4016 75.5341C35.4016 72.3729 32.8303 69.8008 29.6683 69.8008ZM29.6683 78.4008C28.088 78.4008 26.8016 77.1151 26.8016 75.5341C26.8016 73.953 28.0879 72.6673 29.6683 72.6673C31.2487 72.6673 32.535 73.953 32.535 75.5341C32.535 77.1151 31.2485 78.4008 29.6683 78.4008ZM15.3348 69.8008C12.1728 69.8008 9.60156 72.3727 9.60156 75.5341C9.60156 78.6954 12.1728 81.2673 15.3348 81.2673C18.4969 81.2673 21.0681 78.6952 21.0681 75.5341C21.0681 72.3729 18.4969 69.8008 15.3348 69.8008ZM15.3348 78.4008C13.7546 78.4008 12.4681 77.1151 12.4681 75.5341C12.4681 73.953 13.7544 72.6673 15.3348 72.6673C16.9151 72.6673 18.2016 73.953 18.2016 75.5341C18.2016 77.1151 16.9153 78.4008 15.3348 78.4008Z" fill="white" stroke="white" stroke-width="0.1"/>
</svg>
