<svg width="91" height="91" viewBox="0 0 91 91" fill="none" xmlns="http://www.w3.org/2000/svg">
<path d="M88.5211 53.0833C88.9191 53.0833 89.3007 52.9235 89.5821 52.6391C89.8634 52.3547 90.0215 51.9689 90.0215 51.5667V39.4333C90.0215 39.0311 89.8634 38.6453 89.5821 38.3609C89.3007 38.0765 88.9191 37.9167 88.5211 37.9167H80.2197C79.3077 33.567 77.6104 29.4246 75.213 25.6969L81.0764 19.7561C81.3572 19.4717 81.5149 19.0864 81.5149 18.6846C81.5149 18.2828 81.3572 17.8974 81.0764 17.6131L72.5993 9.04388C72.318 8.76002 71.9368 8.60058 71.5393 8.60058C71.1419 8.60058 70.7606 8.76002 70.4793 9.04388L64.6009 14.9695C60.9133 12.546 56.8154 10.8303 52.5125 9.90838V1.51667C52.5125 1.11442 52.3545 0.728651 52.0731 0.444221C51.7917 0.159791 51.4101 0 51.0122 0H39.0093C38.6114 0 38.2298 0.159791 37.9484 0.444221C37.667 0.728651 37.509 1.11442 37.509 1.51667V9.90838C33.2061 10.8303 29.1082 12.546 25.4206 14.9695L19.5437 9.04237C19.2624 8.7585 18.8811 8.59906 18.4837 8.59906C18.0862 8.59906 17.705 8.7585 17.4237 9.04237L8.94664 17.6115C8.66582 17.8959 8.5081 18.2813 8.5081 18.6831C8.5081 19.0849 8.66582 19.4702 8.94664 19.7546L14.81 25.6954C12.4119 29.4234 10.7141 33.5664 9.80184 37.9167H1.50036C1.10244 37.9167 0.720816 38.0765 0.439445 38.3609C0.158073 38.6453 0 39.0311 0 39.4333V51.5667C0 51.9689 0.158073 52.3547 0.439445 52.6391C0.720816 52.9235 1.10244 53.0833 1.50036 53.0833H9.80184C10.7138 57.433 12.4111 61.5754 14.8085 65.3031L8.94514 71.2439C8.66432 71.5283 8.5066 71.9136 8.5066 72.3154C8.5066 72.7172 8.66432 73.1026 8.94514 73.3869L17.4222 81.9561C17.7035 82.24 18.0847 82.3994 18.4822 82.3994C18.8796 82.3994 19.2609 82.24 19.5422 81.9561L25.4191 76.029C29.107 78.4532 33.2055 80.1694 37.509 81.0916V89.4833C37.509 89.8856 37.667 90.2713 37.9484 90.5558C38.2298 90.8402 38.6114 91 39.0093 91H51.0122C51.4101 91 51.7917 90.8402 52.0731 90.5558C52.3545 90.2713 52.5125 89.8856 52.5125 89.4833V81.0916C56.8141 80.1661 60.9104 78.4479 64.5964 76.0229L76.8379 88.3974C78.2468 89.8093 80.1517 90.5994 82.1356 90.5951C84.1195 90.5907 86.0209 89.7921 87.4237 88.374C88.8265 86.9559 89.6166 85.0338 89.6209 83.0283C89.6253 81.0229 88.8436 79.0973 87.4469 77.673L75.2055 65.2986C77.6043 61.5724 79.3041 57.4317 80.2197 53.0833H88.5211ZM85.3254 86.2528C84.9074 86.6754 84.4112 87.0106 83.865 87.2393C83.3189 87.4681 82.7335 87.5858 82.1424 87.5858C81.5512 87.5858 80.9659 87.4681 80.4197 87.2393C79.8736 87.0106 79.3773 86.6754 78.9594 86.2528L50.2305 57.2132C49.5327 56.5088 48.7039 55.951 47.7918 55.5719C46.8797 55.1929 45.9024 55.0002 44.9162 55.0049C44.6033 55.0048 44.2907 55.0236 43.98 55.0611C42.0335 55.2974 40.0593 55.0477 38.2303 54.3339C36.4014 53.62 34.7735 52.4638 33.4891 50.9664C32.2048 49.469 31.3032 47.6762 30.8633 45.7449C30.4234 43.8136 30.4586 41.8027 30.9659 39.8883L37.584 46.5799C37.8653 46.8643 38.2468 47.0242 38.6447 47.0243H45.0107C45.4087 47.0243 45.7903 46.8645 46.0717 46.58C46.353 46.2956 46.5111 45.9098 46.5111 45.5076V39.0648C46.511 38.6626 46.3529 38.2769 46.0715 37.9925L39.4594 31.3025C41.3528 30.7909 43.3414 30.7562 45.2511 31.2015C47.1608 31.6467 48.9335 32.5583 50.414 33.8564C51.8945 35.1546 53.0377 36.7997 53.7436 38.6479C54.4494 40.4961 54.6964 42.491 54.463 44.458C54.3182 45.6056 54.4348 46.7714 54.8038 47.8665C55.1728 48.9615 55.7844 49.9569 56.592 50.7765L85.3254 79.8176C85.7434 80.2401 86.075 80.7418 86.3013 81.2938C86.5275 81.8459 86.644 82.4376 86.644 83.0352C86.644 83.6328 86.5275 84.2245 86.3013 84.7766C86.075 85.3287 85.7434 85.8303 85.3254 86.2528ZM58.7195 48.6395C58.2342 48.1437 57.8674 47.5422 57.6474 46.881C57.4274 46.2199 57.36 45.5166 57.4502 44.8251C57.7717 42.1292 57.3709 39.3956 56.2895 36.9099C55.2082 34.4243 53.4861 32.2779 51.3033 30.6953C49.1206 29.1127 46.5573 28.152 43.8815 27.9135C41.2057 27.6751 38.5156 28.1677 36.0926 29.3399C35.8764 29.4448 35.6882 29.6006 35.5438 29.7942C35.3994 29.9878 35.3031 30.2136 35.2628 30.4526C35.2225 30.6916 35.2396 30.9369 35.3124 31.1679C35.3853 31.3989 35.5118 31.6089 35.6815 31.7802L43.5104 39.6927V43.9833H39.2659L31.4385 36.0694C31.269 35.8978 31.0613 35.7699 30.8328 35.6962C30.6043 35.6226 30.3616 35.6054 30.1252 35.6461C29.8887 35.6868 29.6654 35.7842 29.4739 35.9302C29.2823 36.0761 29.1282 36.2664 29.0244 36.4849C27.8652 38.9336 27.3779 41.652 27.6134 44.3561C27.849 47.0602 28.7987 49.6507 30.3634 51.8569C31.9281 54.0631 34.0503 55.8039 36.5082 56.8974C38.9661 57.9909 41.6694 58.397 44.3356 58.0732C45.0198 57.9823 45.7156 58.0507 46.3696 58.2734C47.0236 58.496 47.6186 58.867 48.109 59.3578L55.8268 67.158C50.7282 69.7617 44.8786 70.4435 39.3276 69.0809C33.7767 67.7184 28.8877 64.4007 25.5381 59.7233C22.1885 55.0459 20.5975 49.3149 21.0506 43.5587C21.5037 37.8025 23.9713 32.398 28.0104 28.3149C32.0496 24.2318 37.3961 21.7375 43.0903 21.2794C48.7846 20.8214 54.454 22.4297 59.0811 25.8157C63.7082 29.2017 66.9902 34.1438 68.3381 39.7551C69.686 45.3664 69.0116 51.2796 66.4359 56.4336L58.7195 48.6395ZM77.501 51.3179C76.7775 55.504 75.2625 59.5098 73.0389 63.1161L68.6519 58.6814C71.7995 52.9156 72.7819 46.1949 71.4184 39.7553C70.0549 33.3157 66.4372 27.5903 61.2307 23.6321C56.0242 19.6738 49.579 17.7489 43.0805 18.2114C36.5819 18.6739 30.4671 21.4926 25.8605 26.1492C21.254 30.8058 18.4656 36.9871 18.0081 43.5563C17.5506 50.1255 19.4548 56.6408 23.3704 61.9039C27.2861 67.167 32.95 70.824 39.3203 72.2023C45.6907 73.5806 52.3391 72.5875 58.0429 69.4057L62.4299 73.8404C58.8624 76.0882 54.8996 77.6196 50.7586 78.351C50.4112 78.4112 50.0958 78.5932 49.8678 78.865C49.6398 79.1367 49.5138 79.481 49.5118 79.8373V87.9667H40.5097V79.8373C40.5095 79.4797 40.3842 79.1336 40.1561 78.8603C39.9279 78.5869 39.6116 78.4039 39.2629 78.3434C34.5299 77.5059 30.0378 75.6241 26.1062 72.8318C25.8173 72.6266 25.466 72.5309 25.1142 72.5617C24.7623 72.5925 24.4325 72.7478 24.1828 73.0002L18.4934 78.7408L12.1349 72.3131L17.8138 66.562C18.0634 66.3095 18.217 65.9761 18.2475 65.6204C18.278 65.2648 18.1833 64.9097 17.9803 64.6176C15.2171 60.641 13.3554 56.0974 12.528 51.3104C12.468 50.9566 12.2858 50.6358 12.0138 50.405C11.7418 50.1742 11.3977 50.0484 11.0426 50.05H3.00072V40.95H11.0426C11.3964 40.9498 11.7388 40.8232 12.0092 40.5926C12.2796 40.3619 12.4607 40.0421 12.5205 39.6897C13.349 34.9053 15.2106 30.3643 17.9728 26.39C18.1758 26.0979 18.2705 25.7428 18.24 25.3871C18.2095 25.0315 18.0559 24.6981 17.8063 24.4456L12.1274 18.6944L18.4859 12.2668L24.1753 18.0074C24.425 18.2598 24.7548 18.415 25.1067 18.4458C25.4585 18.4766 25.8098 18.381 26.0987 18.1757C30.0325 15.3825 34.5273 13.5006 39.2629 12.6642C39.6129 12.6035 39.9302 12.4193 40.1585 12.1444C40.3868 11.8695 40.5112 11.5216 40.5097 11.1627V3.03333H49.5118V11.1627C49.512 11.5203 49.6373 11.8664 49.8654 12.1397C50.0936 12.4131 50.4099 12.5961 50.7586 12.6566C55.4942 13.493 59.989 15.3749 63.9228 18.1681C64.2117 18.3734 64.563 18.4691 64.9148 18.4383C65.2667 18.4075 65.5965 18.2522 65.8462 17.9998L71.5356 12.2592L77.8941 18.6868L72.2152 24.4381C71.9656 24.6905 71.812 25.0239 71.7815 25.3796C71.751 25.7352 71.8457 26.0903 72.0487 26.3824C74.8119 30.359 76.6736 34.9026 77.501 39.6897C77.5608 40.0421 77.7419 40.3619 78.0123 40.5926C78.2827 40.8232 78.6251 40.9498 78.9789 40.95H87.0208V50.05H78.9789C78.6251 50.0502 78.2827 50.1768 78.0123 50.4074C77.7419 50.6381 77.5608 50.9579 77.501 51.3104V51.3179Z" fill="white"/>
</svg>
