<svg width="7" height="7" viewBox="0 0 7 7" fill="none" xmlns="http://www.w3.org/2000/svg">
<path d="M3.5 0C1.56674 0 0 1.56674 0 3.5C0 5.43326 1.56674 7 3.5 7C5.43326 7 7 5.43326 7 3.5C7 1.56674 5.43326 0 3.5 0ZM3.86202 3.847H2.88112V4.36223H3.86202C3.9867 4.36223 4.08734 4.46288 4.08734 4.58755C4.08734 4.71223 3.9867 4.81288 3.86202 4.81288H2.88112V5.31159C2.88112 5.43627 2.78047 5.53691 2.65579 5.53691C2.53112 5.53691 2.43047 5.43627 2.43047 5.31159V4.81288H2.17361C2.04893 4.81288 1.94828 4.71223 1.94828 4.58755C1.94828 4.46288 2.04893 4.36223 2.17361 4.36223H2.43047V3.847H2.17361C2.04893 3.847 1.94828 3.74635 1.94828 3.62167C1.94828 3.497 2.04893 3.39635 2.17361 3.39635H2.43047V1.68991C2.43047 1.56524 2.53112 1.46459 2.65579 1.46459H3.86202C4.50494 1.46459 5.05322 1.98283 5.05322 2.65579C5.05322 3.31223 4.51846 3.847 3.86202 3.847Z" fill="white"/>
<path d="M3.86176 1.91528H2.88086V3.3949H3.86176C4.27034 3.3949 4.60232 3.06292 4.60232 2.65434C4.60232 2.24275 4.26734 1.91528 3.86176 1.91528Z" fill="white"/>
</svg>
