<svg width="17" height="19" viewBox="0 0 17 19" fill="none" xmlns="http://www.w3.org/2000/svg">
<path d="M10.6557 0.17749H7.0507C3.56095 0.17749 0.746094 3.02745 0.746094 6.56491V9.30238C0.746094 11.7732 2.14529 14.019 4.35108 15.069V18.1273C4.35108 18.2814 4.491 18.4231 4.66796 18.4231C4.73792 18.4231 4.82022 18.3939 4.87783 18.3398L7.48281 15.6856H10.6557C14.1496 15.6856 16.9644 12.8357 16.9644 9.29821V6.56074C16.9644 3.02745 14.1496 0.17749 10.6557 0.17749ZM13.0261 12.1482L12.1248 13.0607C11.1536 14.0148 8.65978 12.919 6.45399 10.6482C4.2482 8.37739 3.26876 5.80659 4.19881 4.85243L5.10006 3.93994C5.4622 3.60245 6.03011 3.61911 6.38814 3.96911L7.69269 5.34409C8.02602 5.71075 8.02602 6.25658 7.66388 6.62324C7.56511 6.72324 7.454 6.77741 7.33054 6.83574C6.87375 6.97741 6.63917 7.42323 6.75029 7.88989C6.97251 8.90238 8.23179 10.1649 9.19065 10.4149C9.6351 10.5274 10.0919 10.2732 10.2442 9.83987C10.3964 9.38987 10.8944 9.13988 11.3676 9.29404C11.5076 9.33571 11.6187 9.43571 11.7298 9.51904L13.0343 10.894C13.3594 11.2232 13.3594 11.7857 13.0261 12.1482ZM9.65979 4.51494C9.56102 4.51494 9.47872 4.51494 9.39641 4.5441C9.24415 4.57327 9.07954 4.4441 9.06308 4.26494C9.04661 4.08577 9.16184 3.94411 9.32645 3.92744C9.43756 3.89828 9.54868 3.89828 9.65979 3.89828C11.3224 3.89828 12.6557 5.27326 12.6804 6.93157C12.6804 7.04407 12.6804 7.15657 12.6516 7.26907C12.6228 7.42323 12.4993 7.5649 12.3183 7.53573C12.1372 7.50657 12.0261 7.38157 12.0549 7.19824C12.0549 7.09824 12.0837 7.0149 12.0837 6.93157C12.0713 5.61076 10.989 4.51494 9.65979 4.51494ZM11.4623 6.95657C11.4335 7.11074 11.31 7.2524 11.1289 7.22324C10.989 7.19407 10.8656 7.08157 10.8656 6.95657C10.8656 6.29825 10.3265 5.74825 9.67214 5.74825C9.51987 5.77742 9.35526 5.63576 9.3388 5.46909C9.30999 5.31493 9.44991 5.14826 9.60218 5.13159H9.64333C10.6845 5.13159 11.4623 5.94408 11.4623 6.95657ZM13.7627 7.92323C13.7339 8.07739 13.5817 8.18989 13.4294 8.17739C13.2771 8.16489 13.166 7.99406 13.1784 7.83989C13.1784 7.81073 13.1784 7.81073 13.1784 7.79823C13.2483 7.53156 13.2771 7.2524 13.2771 6.95657C13.2771 4.94826 11.6557 3.30662 9.67214 3.30662C9.57337 3.30662 9.49106 3.30662 9.40876 3.30662C9.25649 3.33578 9.09188 3.19412 9.09188 3.02745C9.06308 2.87329 9.20299 2.70663 9.35526 2.70663C9.46637 2.70663 9.57748 2.67746 9.67214 2.67746C11.989 2.67746 13.8862 4.58577 13.8862 6.94407C13.8738 7.2649 13.8327 7.6149 13.7627 7.92323Z" fill="white"/>
</svg>
