<svg width="18" height="18" viewBox="0 0 18 18" fill="none" xmlns="http://www.w3.org/2000/svg">
<path d="M8.79372 0.17749C4.03713 0.17749 0.177734 4.03689 0.177734 8.79347C0.177734 10.6981 0.794236 12.4524 1.83677 13.8809L0.739101 17.1288L4.16244 16.0612C5.5007 16.9132 7.08957 17.4095 8.79372 17.4095C13.5503 17.4095 17.4097 13.5501 17.4097 8.79347C17.4097 4.03689 13.5503 0.17749 8.79372 0.17749ZM12.7383 13.4147C11.1745 14.0413 9.30997 13.4348 7.27001 11.886C5.23004 10.3372 3.88677 8.15692 3.79655 6.53798C3.70633 4.91904 5.02454 4.10205 5.74128 4.10706C6.45803 4.11207 7.24494 6.40265 7.25497 6.7535C7.26499 7.10937 6.37783 7.74091 6.34275 8.04164C6.30766 8.34237 7.55069 9.82599 8.07697 10.227C8.59824 10.6229 9.67587 11.3848 10.2322 11.3146C10.7836 11.2394 11.1495 10.1317 11.5003 10.0616C11.8512 9.99139 13.7658 10.9437 13.9563 11.1893C14.1468 11.4399 14.1267 12.8634 12.7383 13.4147Z" fill="white"/>
</svg>
