<svg width="15" height="10" viewBox="0 0 15 10" fill="none" xmlns="http://www.w3.org/2000/svg">
<path d="M13.866 1.52733L12.7077 0.423451C12.5515 0.274614 12.3563 0.200195 12.135 0.200195C11.9138 0.200195 11.7185 0.274614 11.5624 0.423451L5.99191 5.73198L3.50603 3.35058C3.34985 3.20175 3.15463 3.12733 2.93337 3.12733C2.71211 3.12733 2.51689 3.20175 2.36071 3.35058L1.20236 4.45446C1.03317 4.6033 0.955078 4.78934 0.955078 5.00019C0.955078 5.21105 1.03317 5.39709 1.18935 5.54593L4.26091 8.47306L5.41925 9.57694C5.57543 9.72577 5.77066 9.80019 5.99191 9.80019C6.21317 9.80019 6.40839 9.72577 6.56458 9.57694L7.72292 8.47306L13.866 2.6188C14.0222 2.46996 14.1003 2.28392 14.1003 2.07306C14.1003 1.86221 14.0222 1.67616 13.866 1.52733Z" fill="#38BC80"/>
</svg>
