<svg width="41" height="40" viewBox="0 0 41 40" fill="none" xmlns="http://www.w3.org/2000/svg">
<rect width="40.0023" height="40" rx="20" fill="#38BC80"/>
<g clip-path="url(#clip0_227_382)">
<path d="M20.0007 11.1992C15.1422 11.1992 11.2002 15.141 11.2002 19.9992C11.2002 21.9445 11.8299 23.7363 12.8948 25.1953L11.7736 28.5125L15.2702 27.4221C16.6372 28.2924 18.26 28.7992 20.0007 28.7992C24.8591 28.7992 28.8012 24.8574 28.8012 19.9992C28.8012 15.141 24.8591 11.1992 20.0007 11.1992ZM24.0298 24.7192C22.4325 25.3591 20.528 24.7396 18.4444 23.1578C16.3607 21.5759 14.9887 19.3491 14.8965 17.6956C14.8044 16.042 16.1508 15.2076 16.8829 15.2127C17.615 15.2178 18.4188 17.5573 18.429 17.9157C18.4392 18.2791 17.5331 18.9242 17.4972 19.2313C17.4614 19.5385 18.731 21.0538 19.2686 21.4633C19.801 21.8677 20.9017 22.6459 21.47 22.5742C22.0332 22.4974 22.4069 21.3661 22.7652 21.2944C23.1236 21.2227 25.0793 22.1954 25.2738 22.4462C25.4684 22.7022 25.4479 24.1561 24.0298 24.7192Z" fill="white"/>
</g>
<defs>
<clipPath id="clip0_227_382">
<rect width="17.601" height="17.6" fill="white" transform="translate(11.2002 11.1992)"/>
</clipPath>
</defs>
</svg>
